<?xml version="1.0" encoding="utf-8"?>
<!-- Generator: $$$/GeneralStr/196=Adobe Illustrator 27.6.0, SVG Export Plug-In . SVG Version: 6.00 Build 0)  -->
<svg version="1.1" id="Layer_1" xmlns="http://www.w3.org/2000/svg" xmlns:xlink="http://www.w3.org/1999/xlink" x="0px" y="0px"
	 viewBox="0 0 781.3 582.3" style="enable-background:new 0 0 781.3 582.3;" xml:space="preserve">
<style type="text/css">
	.st0{fill:#2E3192;}
	.st1{fill:#FFFFFF;}
	.st2{fill:#FFB366;}
	.st3{fill:url(#SVGID_1_);}
	.st4{fill:url(#SVGID_00000125604168309343485410000012407250829006381738_);}
	.st5{fill:#FFF200;}
</style>
<g>
	<path class="st0" d="M209.2,0C93.8,0,0,93.9,0,209.2c0,115.4,93.8,209.2,209.2,209.2s209.2-93.8,209.2-209.2
		C418.4,93.9,324.5,0,209.2,0z"/>
	<path class="st1" d="M206.1,3.1c-111.9,0-203,91.1-203,203s91.1,203,203,203s203-91.1,203-203S318,3.1,206.1,3.1z"/>
	<path class="st0" d="M206.1,10.9C98.4,10.9,10.9,98.5,10.9,206.2s87.6,195.2,195.2,195.2c107.7,0,195.2-87.6,195.2-195.2
		C401.3,98.5,313.7,10.9,206.1,10.9z"/>
	<g>
		<path class="st2" d="M205.3,397.7c106.1,0,192.1-86,192.1-192.1s-86-192.1-192.1-192.1S13.2,99.5,13.2,205.6
			C13.2,311.6,99.2,397.7,205.3,397.7z"/>
		
			<radialGradient id="SVGID_1_" cx="-764.3944" cy="-78.1576" r="283.048" gradientTransform="matrix(-1 0 0 1 -548.6943 195.4727)" gradientUnits="userSpaceOnUse">
			<stop  offset="5.494510e-03" style="stop-color:#FFFF99"/>
			<stop  offset="0.3516" style="stop-color:#FFFF00"/>
			<stop  offset="0.989" style="stop-color:#FFCC00"/>
		</radialGradient>
		<path class="st3" d="M205.3,390.3c102,0,184.8-82.7,184.8-184.8c0-102-82.7-184.8-184.8-184.8c-102,0-184.8,82.7-184.8,184.8
			C20.6,307.5,103.3,390.3,205.3,390.3z"/>
		
			<radialGradient id="SVGID_00000049935123295993090710000000161683531207900580_" cx="-765.1373" cy="58.2084" r="253.4887" gradientTransform="matrix(-1 0 0 1 -548.6943 195.4727)" gradientUnits="userSpaceOnUse">
			<stop  offset="5.494510e-03" style="stop-color:#FFFF99"/>
			<stop  offset="0.3516" style="stop-color:#FFFF00"/>
			<stop  offset="0.989" style="stop-color:#FFCC00"/>
		</radialGradient>
		<path style="fill:url(#SVGID_00000049935123295993090710000000161683531207900580_);" d="M206.4,386.1
			c99,0,179.2-80.2,179.2-179.2c0,0-163.3,176-358.4,0l0,0C27.2,305.8,107.4,386.1,206.4,386.1z"/>
	</g>
</g>
<g>
	<g>
		<g>
			<g>
				<g>
					<g>
						<path class="st1" d="M123.9,269.5c0,7.1,1.7,14,5,20.6c3.3,6.6,8,12.6,13.9,18c5.9,5.4,13,10.1,21.2,14
							c8.2,3.9,17.2,6.1,17.2,6.1c5.3,1.3,9.7-2.2,9.7-7.7V194.2c0-5.5,4.5-10,10-10h30.6c5.5,0,10,4.5,10,10v164.4
							c0,5.5-4.5,10-10,10h-19.2c-19,0-36.9-2.7-53.8-8s-31.6-12.5-44.2-21.5c-12.6-9-22.6-19.5-29.9-31.5
							c-7.4-12-9.6-28.2-9.6-28.2c-0.8-5.4-1.4-14.4-1.4-19.9v-65.3c0-5.5,4.5-10,10-10H114c5.5,0,10,4.5,10,10v75.3H123.9z"/>
					</g>
					<g>
						<path class="st0" d="M252.4,369.4c0,5.5-4.5,10-10,10h-20.1c-5.5,0-14.5-0.3-20-0.7c0,0-29.3-2.1-47.1-7.8
							c-17.9-5.7-33.8-13.4-47.2-23c-13.7-9.8-24.8-21.4-32.9-34.7c-8.4-13.7-11.2-33.9-11.2-33.9c-0.8-5.4-1.4-14.4-1.4-19.9v-76.2
							c0-5.5,4.5-10,10-10h52.3c5.5,0,10,4.5,10,10v76.2c0,5.5,0.5,14.5,1.2,19.9c0,0,0.1,0.6,2.7,5.8c2.7,5.4,6.6,10.4,11.5,14.9
							c5.1,4.7,11.4,8.8,18.5,12.2c3.6,1.7,3.6,1.7,3.6,1.7c4.3,1.5,7.8-1.8,7.8-7.3V183.3c0-5.5,4.5-10,10-10h52.3
							c5.5,0,10,4.5,10,10L252.4,369.4L252.4,369.4z M94.2,195c-5.5,0-10,4.5-10,10v54.5c0,5.5,0.6,14.5,1.4,19.9
							c0,0,1.7,12.1,8.1,22.5c6.6,10.7,15.6,20.2,27,28.3c11.6,8.3,25.4,15,41.2,20c15.7,5,40.6,6.8,40.6,6.8
							c5.5,0.4,14.1,0.7,19.2,0.7s9.2-4.5,9.2-10V205c0-5.5-4.5-10-10-10H212c-5.5,0-10,4.5-10,10v128.3c0,5.5-2.9,9.5-6.4,8.9
							c-3.5-0.6-10.7-2.2-16.1-3.4c0,0-10.9-2.6-20-6.9s-17.1-9.6-23.9-15.8c-6.9-6.3-12.4-13.4-16.3-21.2c-4.1-8.1-5-15.5-5-15.5
							c-0.7-5.5-1.2-14.4-1.2-19.9V205c0-5.5-4.5-10-10-10H94.2z"/>
					</g>
				</g>
			</g>
			<g>
				<g>
					<g>
						<path class="st1" d="M270.1,368.6c-5.5,0-10-4.5-10-10V194.4c0-5.5,4.5-10,10-10h31c5.5,0,10,4.5,10,10v164.1
							c0,5.5-4.5,10-10,10L270.1,368.6L270.1,368.6z"/>
					</g>
					<g>
						<path class="st0" d="M321.9,369.4c0,5.5-4.5,10-10,10h-52.7c-5.5,0-10-4.5-10-10V183.6c0-5.5,4.5-10,10-10h52.7
							c5.5,0,10,4.5,10,10V369.4z M270.9,347.7c0,5.5,4.5,10,10,10h9.2c5.5,0,10-4.5,10-10V205.3c0-5.5-4.5-10-10-10h-9.2
							c-5.5,0-10,4.5-10,10V347.7z"/>
					</g>
				</g>
				<g>
					<g>
						<path class="st1" d="M437.1,184.2c5.5,0,10,4.5,10,10v16.3c0,5.5-4.5,10-10,10h-14.2c-5.5,0-10,4.5-10,10v128.1
							c0,5.5-4.5,10-10,10h-31c-5.5,0-10-4.5-10-10V230.5c0-5.5-4.5-10-10-10h-13.8c-5.5,0-10-4.5-10-10v-16.3c0-5.5,4.5-10,10-10
							H437.1z"/>
					</g>
					<g>
						<path class="st0" d="M423.8,369.4c0,5.5-4.5,10-10,10h-52.7c-5.5,0-10-4.5-10-10v-128c0-5.5-4.5-10-10-10h-13.8
							c-5.5,0-10-4.5-10-10v-38c0-5.5,4.5-10,10-10H448c5.5,0,10,4.5,10,10v38c0,5.5-4.5,10-10,10h-14.2c-5.5,0-10,4.5-10,10V369.4z
							 M372.8,347.7c0,5.5,4.5,10,10,10h9.2c5.5,0,10-4.5,10-10v-128c0-5.5,4.5-10,10-10h14.2c5.5,0,10-3.3,10-7.3s-4.5-7.3-10-7.3
							H349c-5.5,0-10,3.3-10,7.3s4.5,7.3,10,7.3h13.8c5.5,0,10,4.5,10,10V347.7z"/>
					</g>
				</g>
			</g>
			<g>
				<g>
					<g>
						<path class="st1" d="M472.9,368.6c-5.5,0-10-4.5-10-10V196.2c0-5.5,4.5-10.2,10-10.5l23.2-1.2c19.2,0,37.5,2.7,54.7,8
							s32.3,12.6,45.2,21.8c12.9,9.2,23.2,20,30.6,32.3c7.5,12.3,9.8,29.1,9.8,29.1c0.8,5.4,1.4,14.4,1.4,19.9v63.1
							c0,5.5-4.5,10-10,10h-30.6c-5.5,0-10-4.5-10-10v-13c0-5.5-4.5-10-10-10h-53.8c-5.5,0-10,4.5-10,10v13c0,5.5-4.5,10-10,10
							L472.9,368.6L472.9,368.6z M513.5,289.5c0,5.5,4.5,10,10,10h53.8c5.5,0,10-4.5,10-10v-4c0-7.6-1.8-15-5.5-22.1
							c-3.7-7.1-8.8-13.5-15.3-19.2s-14.3-10.5-23.3-14.4s-19.8-6-19.8-6c-5.4-1-9.8,2.6-9.8,8.1v57.6H513.5z"/>
					</g>
					<g>
						<path class="st0" d="M648.7,369.4c0,5.5-4.5,10-10,10h-52.3c-5.5,0-10-4.5-10-10v-13c0-5.5-4.5-10-10-10h-32
							c-5.5,0-10,4.5-10,10v13c0,5.5-4.5,10-10,10H462c-5.5,0-10-4.5-10-10V185.9c0-5.5,4.5-10.2,10-10.5l24-1.3
							c5.5-0.3,14.5-0.2,20,0.2c0,0,29.7,2.1,47.9,7.8c18.2,5.7,34.5,13.5,48.3,23.4c14.1,10,25.4,22,33.6,35.4
							c8.5,14,11.4,34.7,11.4,34.7c0.8,5.4,1.4,14.4,1.4,19.9L648.7,369.4L648.7,369.4z M598.1,347.7c0,5.5,4.5,10,10,10h8.9
							c5.5,0,10-4.5,10-10v-52.2c0-5.5-0.6-14.5-1.4-19.9c0,0-1.8-12.8-8.3-23.4c-6.7-11-16-20.7-27.7-29.1
							c-11.9-8.5-26.1-15.3-42.2-20.3c-16-5-41.2-6.8-41.2-6.8c-5.5-0.4-14.5-0.5-20-0.2l-2.6,0.1c-5.5,0.3-10,5-10,10.5v141.3
							c0,5.5,4.5,10,10,10h8.9c5.5,0,10-4.5,10-10v-13c0-5.5,4.5-10,10-10H588c5.5,0,10,4.5,10,10L598.1,347.7L598.1,347.7z
							 M598.1,300.4c0,5.5-4.5,10-10,10h-75.5c-5.5,0-10-4.5-10-10v-80.7c0-5.5,2.7-9.7,6.1-9.2c3.4,0.4,10.5,1.6,15.9,2.7
							c0,0,12.8,2.5,22.7,6.8c10,4.3,18.8,9.7,26.2,16.1c7.5,6.6,13.5,14.1,17.8,22.4c4.5,8.6,5.5,17.2,5.5,17.2
							c0.7,5.5,1.2,14.4,1.2,19.9L598.1,300.4L598.1,300.4z M524.3,278.6c0,5.5,4.5,10,10,10h32c5.5,0,10-0.7,10-1.6
							c0-0.9-0.5-6-1.2-11.5c0,0-0.2-1.6-3.1-7.2c-3-5.9-7.3-11.2-12.8-16c-5.7-4.9-12.6-9.1-20.5-12.6c-4.5-2-4.8-2-4.8-2
							c-5.3-1.5-9.6,1.7-9.6,7.2L524.3,278.6L524.3,278.6z"/>
					</g>
				</g>
			</g>
			<g>
				<g>
					<g>
						<path class="st1" d="M666.3,368.8c-5.5,0-10-4.5-10-10V194.4c0-5.5,4.5-10,10-10h30.6c5.5,0,10,4.5,10,10v128.1
							c0,5.5,4.5,10,10,10h40.6c5.5,0,10,4.5,10,10v16.3c0,5.5-4.5,10-10,10L666.3,368.8L666.3,368.8z"/>
					</g>
					<g>
						<path class="st0" d="M778.4,369.7c0,5.5-4.5,10-10,10H655.5c-5.5,0-10-4.5-10-10V183.6c0-5.5,4.5-10,10-10h52.3
							c5.5,0,10,4.5,10,10v128.1c0,5.5,4.5,10,10,10h40.6c5.5,0,10,4.5,10,10L778.4,369.7L778.4,369.7z M667.2,348
							c0,5.5,4.5,10,10,10h69.5c5.5,0,10-3.3,10-7.3s-4.5-7.3-10-7.3h-40.6c-5.5,0-10-4.5-10-10V205.3c0-5.5-4.5-10-10-10h-8.9
							c-5.5,0-10,4.5-10,10V348z"/>
					</g>
				</g>
			</g>
		</g>
	</g>
	<g>
		<g>
			<g>
				<g>
					<path class="st1" d="M119.3,263.3c0,7.1,1.7,14,5,20.6c3.3,6.6,8,12.6,13.9,18c5.9,5.4,13,10.1,21.2,14
						c8.2,3.9,17.2,6.1,17.2,6.1c5.3,1.3,9.7-2.2,9.7-7.7V188c0-5.5,4.5-10,10-10h30.6c5.5,0,10,4.5,10,10v164.4c0,5.5-4.5,10-10,10
						h-19.2c-19,0-36.9-2.7-53.8-8s-31.6-12.5-44.2-21.5c-12.6-9-22.6-19.5-29.9-31.5c-7.4-12-9.6-28.2-9.6-28.2
						c-0.8-5.4-1.4-14.4-1.4-19.9V188c0-5.5,4.5-10,10-10h30.6c5.5,0,10,4.5,10,10v75.3H119.3z"/>
				</g>
			</g>
			<g>
				<g>
					<path class="st1" d="M265.4,362.4c-5.5,0-10-4.5-10-10V188.2c0-5.5,4.5-10,10-10h31c5.5,0,10,4.5,10,10v164.1
						c0,5.5-4.5,10-10,10h-31V362.4z"/>
				</g>
				<g>
					<path class="st1" d="M432.5,178c5.5,0,10,4.5,10,10v16.3c0,5.5-4.5,10-10,10h-14.2c-5.5,0-10,4.5-10,10v128.1
						c0,5.5-4.5,10-10,10h-31c-5.5,0-10-4.5-10-10V224.3c0-5.5-4.5-10-10-10h-13.8c-5.5,0-10-4.5-10-10V188c0-5.5,4.5-10,10-10
						L432.5,178L432.5,178z"/>
				</g>
			</g>
			<g>
				<g>
					<path class="st1" d="M468.2,362.4c-5.5,0-10-4.5-10-10V190c0-5.5,4.5-10.2,10-10.5l23.2-1.2c19.2,0,37.5,2.7,54.7,8
						s32.3,12.6,45.2,21.8c12.9,9.2,23.2,20,30.6,32.3c7.5,12.3,9.8,29.1,9.8,29.1c0.8,5.4,1.4,14.4,1.4,19.9v63.1
						c0,5.5-4.5,10-10,10h-30.6c-5.5,0-10-4.5-10-10v-13c0-5.5-4.5-10-10-10h-53.8c-5.5,0-10,4.5-10,10v13c0,5.5-4.5,10-10,10
						L468.2,362.4L468.2,362.4z M508.8,283.3c0,5.5,4.5,10,10,10h53.8c5.5,0,10-4.5,10-10v-4c0-7.6-1.8-15-5.5-22.1
						c-3.7-7.1-8.8-13.5-15.3-19.2s-14.3-10.5-23.3-14.4s-19.8-6-19.8-6c-5.4-1-9.8,2.6-9.8,8.1v57.6H508.8z"/>
				</g>
			</g>
			<g>
				<g>
					<path class="st1" d="M661.7,362.6c-5.5,0-10-4.5-10-10V188.2c0-5.5,4.5-10,10-10h30.6c5.5,0,10,4.5,10,10v128.1
						c0,5.5,4.5,10,10,10h40.6c5.5,0,10,4.5,10,10v16.3c0,5.5-4.5,10-10,10H661.7z"/>
				</g>
			</g>
		</g>
	</g>
</g>
<g>
	<path class="st0" d="M781.3,529.2v-46.8v-0.6c-0.1-3.8-1.2-12.9-7.4-20.9c3.4-4.1,5.7-9.1,6.7-14.6l0.3-1.9V429
		c0.4-14.1-5.1-26.3-16.2-35.5c-8.7-7.2-19.6-12.1-32.4-14.6c-11.9-2.3-24.5-2.2-36.5,0.4c-11.5,2.4-21.3,6.6-29.1,12.5
		c-8.3-6.3-18.4-10.6-30.2-12.8c-11.9-2.3-24.5-2.2-36.5,0.4c-11.6,2.4-21.4,6.6-29.1,12.5c-8.4-6.6-18.4-11-29.7-13.1
		c-10.2-1.8-20.3-2.2-29.4-1.1c-5.1,0.7-10,1.8-14.5,3.3c-4.7-1.7-9.9-2.8-15.4-3.3c-8.8-0.9-19.1-0.3-30.2,1.5
		c-12.2,2.1-22.5,6.4-30.7,12.8c-8.3-6.4-18.6-10.8-30.5-13.1s-24.5-2.2-36.5,0.4c-12.3,2.6-22.6,7.2-30.6,13.7
		c-7.6-5.7-17.2-9.8-28.5-12.2c-12-2.5-24.7-2.7-36.5-0.4c-12.9,2.5-23.8,7.4-32.4,14.6c-10.9,9-16.6,21-16.6,34.5V531
		c0,13.9,5.7,26,16.6,35.1c8.7,7.2,19.6,12.1,32.4,14.6c11.9,2.3,24.5,2.2,36.5-0.4c8-1.7,15.2-4.2,21.4-7.6c2.7,2.5,5.9,4.6,9.4,6
		c5.7,2.3,12.5,3.6,20.9,3.7c0.5,0,1,0,1.5,0c8,0,14.8-1.2,20.6-3.6c1.5-0.6,3-1.4,4.4-2.2c1,0.6,2,1.1,3,1.6
		c5.8,2.8,13.1,4.1,23.1,4.1c9.6,0,16.8-1.3,22.7-4.1c4.9,2.4,11.2,3.5,21.5,3.8c1.3,0,2.6,0.1,3.8,0.1c8,0,13.8-0.9,18.6-2.9
		c1.6-0.7,3.2-1.4,4.7-2.3c0.6,0.4,1.3,0.8,2,1.1c5.3,2.8,11.3,3.8,23.7,3.8c12.7,0,19.1-1.2,24.6-4.4c0.4-0.3,0.9-0.5,1.3-0.8
		c0.8,0.5,1.7,1.1,2.5,1.5c5.3,2.8,11.3,3.8,23.7,3.8c12.7,0,19.2-1.2,24.6-4.4c2.2-1.3,4.3-3,6.4-5c6.1,3.3,13.1,5.8,21,7.6
		c12.9,2.9,26.3,3.1,38.9,0.4c11.8-2.5,21.6-7,29.2-13.3c8.2,6,18.1,10.1,29.6,12.3c12,2.3,24.4,2.2,36.5-0.4
		c13-2.7,23.7-7.7,31.9-14.8C776.5,555.1,781.8,543,781.3,529.2z"/>
	<path class="st0" d="M768.4,524v-45.9v-0.6c-0.1-3.7-1.1-12.6-7.2-20.5c3.3-4,5.5-8.9,6.5-14.3l0.3-1.9v-15
		c0.4-13.8-5.1-25.9-15.9-34.9c-8.5-7.1-19.2-11.9-31.8-14.3c-11.7-2.2-24.1-2.1-35.9,0.4c-11.3,2.4-20.8,6.5-28.4,12.2
		c-8.1-6.1-18.1-10.3-29.6-12.5c-11.7-2.2-24.1-2.1-35.9,0.4c-11.3,2.4-20.9,6.5-28.5,12.2c-8.3-6.5-18.1-10.8-29.1-12.8
		c-10-1.8-20-2.2-28.9-1c-5,0.6-9.8,1.7-14.2,3.2c-4.6-1.6-9.7-2.7-15.1-3.3c-8.7-0.9-18.8-0.3-29.6,1.5c-11.9,2-22,6.2-30.1,12.5
		c-8.2-6.2-18.2-10.5-29.9-12.8c-11.7-2.2-24.1-2.1-35.9,0.4c-12,2.5-22.1,7-30,13.4c-7.5-5.6-16.8-9.6-27.9-11.9
		c-11.8-2.5-24.2-2.6-35.9-0.4c-12.6,2.4-23.3,7.2-31.8,14.3c-10.7,8.9-16.3,20.6-16.3,33.9v99.4c0,13.7,5.7,25.6,16.3,34.5
		c8.5,7.1,19.2,11.9,31.8,14.3c11.7,2.3,24,2.1,35.9-0.4c7.8-1.6,14.8-4.1,20.9-7.4c2.6,2.4,5.8,4.4,9.2,5.8
		c5.6,2.3,12.3,3.5,20.5,3.6c0.5,0,1,0,1.4,0c7.9,0,14.5-1.2,20.2-3.6c1.5-0.6,2.9-1.3,4.2-2.1c0.9,0.6,1.9,1.1,2.9,1.6
		c5.7,2.7,12.9,4,22.7,4c9.3,0,16.5-1.3,22.2-4c4.9,2.4,11,3.4,21,3.7c1.3,0,2.6,0.1,3.7,0.1c7.9,0,13.5-0.9,18.3-2.8
		c1.5-0.6,3.1-1.4,4.6-2.3c0.6,0.4,1.2,0.7,1.9,1.1c5.2,2.8,11.1,3.7,23.3,3.7c12.5,0,18.8-1.1,24.2-4.4c0.4-0.2,0.8-0.5,1.2-0.7
		c0.8,0.5,1.6,1,2.4,1.4c5.2,2.8,11.1,3.7,23.3,3.7c12.5,0,18.8-1.1,24.2-4.4c2.2-1.3,4.2-2.9,6.2-4.9c5.9,3.2,12.8,5.7,20.5,7.4
		c12.7,2.9,25.8,3,38.2,0.3c11.6-2.5,21.2-6.8,28.6-13c8,5.8,17.7,9.9,28.9,12.1c11.8,2.3,24,2.1,35.9-0.4
		c12.8-2.7,23.3-7.6,31.3-14.5C763.7,549.4,768.9,537.5,768.4,524z"/>
	<path class="st1" d="M765.3,524v-45.8v-0.5c-0.1-3.4-1.1-13-8.3-20.7c3.9-3.9,6.5-8.9,7.6-14.8l0.3-1.6v-14.9
		c0.4-12.8-4.7-24.1-14.8-32.4c-8.1-6.7-18.3-11.3-30.4-13.7c-11.3-2.2-23.2-2-34.6,0.4c-11.8,2.5-21.6,6.9-29.1,13.1
		c-8-6.6-18.2-11.1-30.2-13.4c-11.3-2.2-23.2-2-34.6,0.4c-11.8,2.5-21.6,6.9-29.2,13.2c-0.2-0.1-0.3-0.3-0.5-0.4
		c-8.2-6.8-17.9-11.2-29.1-13.3c-9.7-1.8-19.3-2.1-27.9-1c-5.2,0.7-10.1,1.8-14.6,3.4c-4.7-1.8-9.8-2.9-15.3-3.5
		c-8.4-0.8-18.2-0.3-28.8,1.5c-12.4,2.1-22.6,6.6-30.4,13.4l-0.1,0.1c0,0,0,0-0.1,0c-8.1-6.7-18.3-11.3-30.4-13.7
		c-11.3-2.2-23.2-2-34.6,0.4c-12.2,2.6-22.3,7.2-30,13.8c-0.2,0.2-0.4,0.3-0.6,0.5c-7.4-6.1-17-10.4-28.6-12.9
		c-11.4-2.4-23.3-2.5-34.6-0.4c-12.1,2.3-22.3,6.9-30.4,13.7c-10,8.3-15.2,19.2-15.2,31.5v99.3c0,12.7,5.3,23.8,15.2,32.1
		c8.1,6.7,18.3,11.3,30.4,13.7c11.3,2.2,23.1,2.1,34.6-0.4c8.4-1.8,15.8-4.5,22.1-8.2c2.7,2.9,6,5.2,9.8,6.8
		c5.3,2.2,11.6,3.3,19.4,3.4c0.5,0,0.9,0,1.4,0c7.5,0,13.7-1.1,19-3.3c1.9-0.8,3.8-1.8,5.5-3c1.3,0.9,2.7,1.8,4.2,2.5
		c5.3,2.5,12.1,3.7,21.4,3.7c9.6,0,16.7-1.4,22.2-4.4c0.4,0.2,0.8,0.4,1.2,0.6c4.5,2.2,10.2,3.2,20,3.5c1.3,0,2.5,0.1,3.6,0.1
		c7.5,0,12.7-0.8,17.1-2.6c2-0.8,3.9-1.8,5.8-3.1c1.1,0.8,2.1,1.4,3.2,2c4.7,2.5,10.2,3.3,21.8,3.3c11.8,0,17.8-1,22.6-3.9
		c0.9-0.6,1.9-1.2,2.8-1.9c1.3,1,2.5,1.8,3.9,2.5c4.7,2.5,10.2,3.3,21.8,3.3c11.8,0,17.8-1,22.6-3.9c2.5-1.5,4.9-3.5,7.2-6.1
		c6.1,3.6,13.4,6.4,21.8,8.3c12.3,2.8,24.8,2.9,36.8,0.3c12.1-2.6,21.9-7.3,29.1-13.9c8,6.4,17.9,10.8,29.7,13
		c5.4,1,10.9,1.6,16.4,1.6l0,0c6.1,0,12.2-0.6,18.2-1.9c12.2-2.6,22.3-7.2,30-13.8C760.9,547.6,765.7,536.6,765.3,524z"/>
	<g>
		<g>
			<path class="st5" d="M757.6,524.1v-45.8v-0.4c-0.2-4.3-1.8-16.5-15-21.3c0.8-0.2,1.6-0.5,2.4-0.8c6.5-2.7,10.8-8,12-14.9l0.2-0.9
				v-14.3c0.4-10.4-3.8-19.5-12-26.3c-7.1-5.9-16.1-9.9-26.9-12c-10.4-2-21-1.9-31.6,0.3c-10.9,2.3-19.9,6.4-26.5,12.1
				c-1.5,1.3-2.9,2.8-4.2,4.3c-1.4-1.7-3-3.3-4.7-4.7c-7.1-5.9-16.1-9.9-26.9-12c-10.4-2-21-1.9-31.6,0.3
				c-10.9,2.3-19.9,6.4-26.5,12.1c-1.6,1.4-3.1,2.9-4.4,4.5c-1.5-2-3.3-3.8-5.4-5.5c-7.1-5.9-15.7-9.8-25.5-11.6
				c-9.1-1.6-17.7-2-25.6-1c-5.8,0.7-11,2.1-15.6,4.1c-4.7-2.2-10-3.5-16-4.1c-7.8-0.8-16.7-0.3-26.7,1.4
				c-11,1.9-19.9,5.8-26.7,11.6c-1.9,1.7-3.6,3.5-5,5.4c-1.5-1.9-3.2-3.6-5.2-5.3c-7.1-5.9-16.1-9.9-26.9-12
				c-10.4-2-21-1.9-31.6,0.3c-10.9,2.3-19.9,6.4-26.5,12.1c-2.1,1.8-3.9,3.8-5.4,5.9c-1.2-1.5-2.6-3-4.1-4.3
				c-6.5-5.8-15.4-9.9-26.4-12.2c-10.5-2.2-21.2-2.3-31.6-0.3c-10.8,2.1-19.9,6.1-27,12c-8.1,6.8-12.4,15.6-12.4,25.5v99.4
				c0,10.3,4.3,19.4,12.4,26.1c7.1,5.9,16.1,9.9,27,12c4.9,0.9,9.9,1.4,14.9,1.4c5.5,0,11.1-0.6,16.7-1.8
				c10.6-2.2,19.3-6.1,25.9-11.6c1.8,4.8,5.5,8.5,10.6,10.6c4.4,1.8,9.8,2.7,16.6,2.8c0.4,0,0.8,0,1.2,0c6.4,0,11.7-0.9,16-2.7
				c3.5-1.5,6.4-3.6,8.8-6.3c1.8,2.5,4.3,4.6,7.2,6c4.2,2,9.9,2.9,18,2.9c8.3,0,14.2-1.1,18.6-3.5c1.3-0.7,2.5-1.6,3.6-2.6
				c1.5,1.3,3,2.3,4.7,3.1c3.4,1.7,8.2,2.5,16.7,2.7c1.2,0,2.3,0.1,3.4,0.1c6.4,0,10.8-0.6,14.2-2c3.2-1.3,6.3-3.3,9.2-6
				c2.1,2.4,4.2,4.1,6.4,5.3c2.9,1.5,6.8,2.4,18.2,2.4c11.6,0,15.6-1,18.7-2.8c2.3-1.4,4.5-3.4,6.7-6.2c2.5,3.1,5,5.2,7.5,6.6
				c2.9,1.5,6.8,2.4,18.2,2.4c11.6,0,15.6-1,18.7-2.8c2.8-1.7,5.5-4.4,8.1-8.2l1.3-1.8c6.3,5.1,14.8,8.9,25.2,11.3
				c5.9,1.3,11.8,2,17.6,2c5.3,0,10.7-0.6,15.9-1.7c11.5-2.5,20.6-7,26.9-13.4c1.3-1.3,2.4-2.7,3.4-4.1c1.4,1.6,2.9,3.2,4.6,4.6
				c7.1,5.9,16.1,9.9,26.9,12c4.9,0.9,10,1.4,14.9,1.4c5.5,0,11.1-0.6,16.6-1.8c10.9-2.3,19.9-6.4,26.5-12.1
				C754.1,543.3,757.9,534.4,757.6,524.1z M708.2,453.9c0.5,0.3,0.9,0.6,1.4,0.9h-1.4V453.9z M648.6,456.7c0.1,0,0.2-0.1,0.4-0.1
				v0.3C648.8,456.8,648.7,456.7,648.6,456.7z M615.6,454.7h-1.3v-0.9C614.7,454.1,615.2,454.4,615.6,454.7z M655.4,496.1
				c0.3-0.3,0.7-0.6,1-0.9c0.3,0.3,0.7,0.6,1,0.9c-0.4,0.3-0.7,0.5-1,0.8C656.1,496.7,655.7,496.4,655.4,496.1z"/>
			<path class="st0" d="M343.6,566.9c-0.4,0-0.8,0-1.3,0c-7-0.1-12.6-1.1-17.2-2.9c-4.7-1.9-8.4-5.3-10.6-9.6
				c-6.6,5-14.9,8.6-24.9,10.7c-10.7,2.3-21.6,2.4-32.2,0.3c-11.1-2.1-20.4-6.3-27.6-12.3c-8.5-7.1-13-16.5-13-27.3v-99.5
				c0-10.4,4.5-19.7,13-26.7c7.3-6.1,16.6-10.2,27.6-12.3c10.5-2,21.5-1.9,32.2,0.3c11.3,2.4,20.4,6.6,27.1,12.6c1.1,0.9,2.1,2,3,3
				c1.3-1.6,2.8-3.2,4.4-4.6c6.8-5.9,16-10.1,27.2-12.4c10.7-2.2,21.7-2.4,32.2-0.3c11.1,2.1,20.4,6.3,27.6,12.3
				c1.5,1.2,2.9,2.6,4.1,4c1.2-1.5,2.6-2.8,4.1-4.1c7-6,16.2-10,27.4-12c10-1.7,19.2-2.2,27.1-1.4c5.9,0.6,11.2,1.9,15.9,4
				c4.6-1.9,9.8-3.2,15.4-3.9c8-1,16.9-0.7,26,1c10.1,1.8,18.9,5.8,26.3,11.9c1.6,1.3,3.1,2.8,4.4,4.3c1-1.2,2.2-2.3,3.3-3.3
				c6.8-5.9,16-10.1,27.2-12.4c10.7-2.2,21.7-2.4,32.2-0.3c11.1,2.1,20.4,6.3,27.6,12.3c1.3,1.1,2.6,2.3,3.7,3.5
				c1-1.1,2.1-2.1,3.2-3.1c6.8-5.9,16-10.1,27.2-12.4c10.7-2.2,21.7-2.4,32.2-0.3c11.1,2.1,20.4,6.3,27.6,12.3
				c8.6,7.1,12.9,16.7,12.6,27.6v14.4l-0.2,1.1c-1.3,7.1-5.5,12.6-11.9,15.6c11,5.9,12.4,17.4,12.5,21.1v0.4v45.8
				c0.4,10.8-3.7,20.1-11.7,27.1c-6.8,5.9-16,10.1-27.2,12.4c-10.7,2.3-21.6,2.4-32.2,0.3c-11.1-2.1-20.4-6.3-27.6-12.3
				c-1.2-1-2.4-2.1-3.5-3.3c-0.8,1-1.6,1.9-2.4,2.7c-6.5,6.7-15.8,11.3-27.7,13.9c-11.2,2.4-22.7,2.3-34.2-0.3
				c-9.9-2.3-18.2-5.8-24.5-10.6l-0.3,0.5c-2.8,4-5.6,6.8-8.6,8.6c-3.2,1.9-7.5,3.1-19.5,3.1c-11.7,0-15.8-1-18.9-2.6
				c-2.4-1.2-4.6-3.1-6.8-5.6c-1.9,2.2-3.9,3.9-5.9,5.1c-3.2,1.9-7.5,3.1-19.5,3.1c-11.7,0-15.8-1-18.9-2.6c-2-1.1-3.9-2.5-5.8-4.5
				c-2.7,2.3-5.6,4.1-8.5,5.3c-4.2,1.7-9.6,2.3-18.2,2.1c-8.8-0.3-13.8-1.1-17.4-2.9c-1.3-0.7-2.7-1.5-3.9-2.5
				c-0.9,0.7-1.9,1.4-2.9,1.9c-4.6,2.5-10.7,3.7-19.3,3.7c-8.3,0-14.3-1-18.7-3.1c-2.6-1.2-4.8-2.9-6.6-5c-2.3,2.3-5,4.1-8.1,5.4
				C355.7,565.9,350.2,566.9,343.6,566.9z M315.8,549.3l0.8,2c1.7,4.4,5,7.8,9.7,9.7c4.2,1.7,9.4,2.6,16,2.7
				c6.8,0.1,12.2-0.7,16.7-2.6c3.2-1.4,6-3.3,8.2-5.9l1.3-1.5l1.1,1.6c1.7,2.4,3.9,4.2,6.6,5.5c4,1.9,9.5,2.8,17.3,2.8
				c8,0,13.7-1.1,17.8-3.3c1.2-0.6,2.3-1.4,3.3-2.4l1-0.9l1,0.9c1.4,1.2,2.8,2.1,4.4,2.9c3.2,1.6,7.8,2.3,16.1,2.6
				c8.1,0.2,13.2-0.3,16.9-1.9c3-1.2,5.9-3.2,8.8-5.7l1.2-1.1l1,1.2c2,2.2,3.9,3.9,6,5c2.7,1.4,6.4,2.2,17.5,2.2
				c11.3,0,15.1-1,17.9-2.6c2.2-1.3,4.2-3.2,6.3-5.8l1.2-1.5l1.2,1.5c2.3,2.9,4.6,4.9,7.1,6.2c2.7,1.4,6.4,2.2,17.5,2.2
				c11.3,0,15.1-1,17.9-2.6c2.6-1.6,5.1-4.1,7.7-7.7l2.2-3.2l1.3,1c6.1,5,14.4,8.7,24.6,11c11,2.5,22.1,2.6,32.8,0.3
				c11.2-2.4,20-6.8,26.1-13c1.1-1.1,2.1-2.4,3.3-3.9l1.2-1.6l1.3,1.5c1.3,1.6,2.8,3.1,4.4,4.4c6.9,5.7,15.7,9.6,26.2,11.7
				c10.2,2,20.6,1.9,31-0.3c10.7-2.2,19.4-6.2,25.8-11.8c7.3-6.3,11-14.8,10.6-24.7V478c-0.2-4.5-1.8-15.5-14-19.8l-4.4-1.6l4.5-1.4
				c0.8-0.2,1.5-0.5,2.2-0.8c6-2.5,10-7.4,11.1-13.8l0.1-0.8v-14.2c0.3-10-3.6-18.6-11.4-25.1c-6.9-5.7-15.7-9.6-26.2-11.7
				c-10.1-1.9-20.7-1.8-31,0.3c-10.7,2.2-19.4,6.2-25.8,11.8c-1.4,1.2-2.8,2.6-4,4.1l-1.2,1.5l-1.2-1.5c-1.4-1.6-2.9-3.2-4.5-4.5
				c-6.9-5.7-15.7-9.6-26.2-11.7c-10.1-1.9-20.7-1.8-31,0.3c-10.7,2.2-19.4,6.2-25.8,11.8c-1.5,1.3-2.9,2.8-4.2,4.3l-1.2,1.5
				l-1.2-1.6c-1.5-1.9-3.2-3.7-5.2-5.3c-6.9-5.7-15.3-9.5-24.8-11.3c-8.9-1.6-17.4-1.9-25.1-0.9c-5.6,0.7-10.7,2-15.2,4l-0.6,0.3
				l-0.6-0.3c-4.5-2.1-9.7-3.4-15.5-4c-7.6-0.7-16.5-0.3-26.3,1.4c-10.7,1.8-19.4,5.6-25.9,11.2c-1.8,1.6-3.4,3.3-4.8,5.2l-1.2,1.6
				l-1.3-1.6c-1.4-1.8-3.1-3.5-4.9-5c-6.9-5.7-15.7-9.6-26.2-11.7c-10.1-1.9-20.7-1.8-31,0.3c-10.7,2.2-19.4,6.2-25.8,11.8
				c-1.9,1.7-3.7,3.6-5.1,5.6l-1.2,1.7l-1.3-1.6c-1.2-1.5-2.5-2.9-3.9-4.2c-6.3-5.6-14.9-9.6-25.7-11.8c-10.3-2.2-20.8-2.3-31-0.3
				c-10.5,2-19.4,6-26.3,11.7c-7.8,6.5-11.9,14.9-11.9,24.4v99.4c0,9.9,4.1,18.5,11.9,24.9c6.9,5.7,15.7,9.6,26.3,11.7
				c10.2,2,20.6,1.9,31-0.3c10.3-2.2,18.8-6,25.2-11.3L315.8,549.3z M656.4,498.9l-1.2-1c-0.2-0.2-0.5-0.4-0.7-0.6l-1.6-1.2l1.5-1.3
				c0.3-0.3,0.6-0.5,0.9-0.8l1-1l1.5,1.3c0.2,0.2,0.4,0.4,0.6,0.5l1.7,1.3l-1.7,1.2c-0.3,0.2-0.5,0.4-0.8,0.6L656.4,498.9z
				 M650.5,458.9l-7-2.3l4.7-1.5c0.2-0.1,0.2-0.1,0.3-0.1l2-0.6V458.9z M715.6,456.3h-8.9V451l2.4,1.6c0.4,0.3,0.9,0.6,1.3,0.8
				L715.6,456.3z M621.3,456.3h-8.5v-5.4l2.4,1.7c0.4,0.3,0.8,0.5,1.2,0.8L621.3,456.3z"/>
		</g>
	</g>
	<g>
		<path class="st0" d="M229.2,469.9v-43.7c0-6.7,2.8-12.5,8.5-17.2s13-8,22.1-9.7c9-1.7,18.1-1.6,27.3,0.3
			c9.2,1.9,16.3,5.2,21.4,9.7s7.6,10.4,7.6,17.5v18.8c-1.2,3.3-2.8,5.5-4.8,6.8s-6.5,1.8-13.3,1.7s-11.6-0.8-14.4-2
			c-2.8-1.3-4.4-3.4-5-6.5v-10.7c0-3.1-0.7-5.2-2-6.2c-1.3-1.1-2.8-1.6-4.4-1.6s-3.1,0.5-4.6,1.4c-1.5,1-2.2,3-2.2,6.1v81.8
			c0,4,0.7,6.6,2.2,7.5c1.5,1,3,1.4,4.6,1.4s3.1-0.5,4.4-1.6s2-3.2,2-6.5v-10.4v-18.5c-0.6-1.5-1.9-2.5-3.9-2.9
			c-2.6-0.4-4.4-2.2-5.2-5.3c-0.9-3.2-0.7-6.4,0.7-9.7c1.3-3.3,3.4-4.8,6.3-4.6h3.1c7.9-0.2,13.9-0.1,18.1,0.3
			c4.2,0.4,8.2,1.6,12,3.8c3.8,2.1,6,6.6,6.6,13.3v42.5c0.3,7.1-2.2,13-7.4,17.5c-5.2,4.5-12.4,7.8-21.6,9.7s-18.3,2-27.3,0.3
			s-16.4-5-22.1-9.7s-8.5-10.6-8.5-17.8v-55.8H229.2z"/>
		<path class="st0" d="M324.8,425.4c-0.3-7.1,2.2-13,7.4-17.5c5.2-4.5,12.4-7.8,21.6-9.7s18.3-2,27.3-0.3s16.4,5,22.1,9.7
			s8.4,10.7,8.1,17.8v119.7c-0.3,3.3-1.7,5.6-4.4,7.1c-2.6,1.4-7.1,2.2-13.3,2.2c-6.3,0-10.7-0.6-13.3-1.9c-2.6-1.3-4.2-3.5-4.8-6.8
			v-55.5h-13.1v55.5c-1.5,3.3-3.8,5.6-7,6.9c-3.2,1.4-7.5,2-12.9,1.9s-9.6-0.8-12.7-2c-3.1-1.3-4.7-3.4-5-6.5v-12.4L324.8,425.4
			L324.8,425.4z M375.5,465.7v-32c0-4.1-0.7-6.7-2.2-7.6c-1.5-0.9-3-1.4-4.6-1.4s-3.1,0.5-4.4,1.5s-2,3.2-2,6.4v33L375.5,465.7
			L375.5,465.7z"/>
		<path class="st0" d="M506.5,547.4c-1.7,2.5-3.4,4.2-4.8,5.1c-1.5,0.9-5.8,1.3-13.1,1.3s-11.6-0.4-13.1-1.2s-3.1-2.3-4.8-4.6V434.1
			c0-4.1-0.7-6.7-2.2-7.6c-1.5-0.9-3-1.4-4.6-1.4s-3.1,0.5-4.4,1.5c-1.3,1-2,3.2-2,6.4v33v82c-2.3,2.3-4.7,4-7,4.9
			c-2.3,1-6.7,1.4-13.1,1.2c-6.4-0.2-10.5-0.7-12.2-1.6c-1.7-0.9-3.5-2.4-5.2-4.5v-15V424.8c-0.3-7.1,2.2-13,7.4-17.5
			s12.4-7.6,21.4-9.1s17-2,23.8-1.3s12.4,2.6,16.8,5.6c4.7-2.9,10.4-4.8,17.3-5.6c6.8-0.9,14.3-0.6,22.3,0.9
			c8,1.4,14.8,4.5,20.5,9.3c5.7,4.7,8.4,10.7,8.1,17.8v122.6c-1.7,2.5-3.4,4.2-4.8,5.1c-1.5,0.9-5.8,1.3-13.1,1.3
			s-11.6-0.4-13.1-1.2s-3.1-2.3-4.8-4.6v-114c0-4.1-0.7-6.7-2.2-7.6c-1.5-0.9-3-1.4-4.6-1.4s-3.1,0.5-4.4,1.5
			c-1.3,1-2.7,3.3-4.1,6.9L506.5,547.4L506.5,547.4z"/>
		<path class="st0" d="M565.9,465.6v-40.2c-0.3-7.1,2.2-13,7.4-17.5s12.4-7.8,21.6-9.7c9.2-1.9,18.3-2,27.3-0.3s16.4,5,22.1,9.7
			c5.7,4.7,8.4,10.7,8.1,17.8V439c-0.6,3.3-2.4,5.5-5.5,6.8s-7.4,1.9-13.1,1.9c-5.7,0-9.8-0.7-12.2-2c-2.5-1.3-4.1-3.6-5-6.7v-5.2
			c0-4.2-0.7-6.8-2.2-7.7s-3-1.3-4.6-1.3s-3.1,0.5-4.4,1.4c-1.3,1-2,3.1-2,6.4v25.2c0,5.2,2.8,7.8,8.3,7.8h24.5
			c6.1,0.4,10.2,1.4,12.2,3s2.9,5,2.6,10c-0.3,5-1.2,8.1-2.8,9.4c-1.6,1.3-5.6,2-12,2.2h-24c-5.8,0-8.7,2.3-8.7,6.9v19.6
			c0,3.3,0.7,5.4,2,6.5s2.8,1.6,4.4,1.6c1.6,0,3.1-0.5,4.6-1.4c1.5-1,2.2-3.5,2.2-7.5v-5.2c0.9-3.1,2.4-5.3,4.6-6.5
			c2.2-1.3,6.4-1.9,12.7-1.9s10.8,0.6,13.5,1.7c2.8,1.2,4.4,3.4,5,6.7v13.6c0.3,7.1-2,13.2-6.8,18.1c-4.8,4.9-11.9,8.4-21.4,10.4
			s-19.1,1.9-28.8-0.3c-9.8-2.2-17.2-5.7-22.3-10.4s-7.5-10.6-7.2-17.8L565.9,465.6L565.9,465.6z"/>
		<path class="st0" d="M746.7,524.3c0.3,7.1-2.2,13-7.4,17.5s-12.4,7.8-21.6,9.7c-9.2,1.9-18.3,2-27.3,0.3s-16.4-5-22.1-9.7
			c-5.7-4.7-8.4-10.6-8.1-17.8v-13.6c0.6-3.3,2.4-5.5,5.5-6.8s7.6-1.8,13.5-1.6c6,0.2,10,0.9,12.2,2c2.2,1.2,3.7,3.3,4.6,6.4v5.2
			c0,4.1,0.7,6.7,2.2,7.6c1.5,0.9,3,1.4,4.6,1.4s3.1-0.5,4.4-1.5c1.3-1,2-3.2,2-6.4v-19.8c0-4.6-3.9-6.9-11.8-6.9h-23.1
			c-9.3,0-14.1-3.9-14.4-11.6v-53.2c-0.3-7.1,2.2-13,7.4-17.5s12.4-7.8,21.6-9.7c9.2-1.9,18.3-2,27.3-0.3s16.4,5,22.1,9.7
			c5.7,4.7,8.4,10.7,8.1,17.8v13.6c-0.6,3.3-2.4,5.5-5.5,6.8s-7.6,1.8-13.5,1.6c-6-0.2-10-0.9-12.2-2c-2.2-1.2-3.7-3.3-4.6-6.4v-5.2
			c0-4.1-0.7-6.7-2.2-7.6c-1.5-0.9-3-1.4-4.6-1.4s-3.1,0.5-4.4,1.5c-1.3,1-2,3.2-2,6.4v25c0,5.2,2.8,7.8,8.3,7.8h24.5
			c10.8,0,16.3,4.2,16.6,12.7L746.7,524.3L746.7,524.3z"/>
	</g>
</g>
</svg>
