<svg width="178" height="31" viewBox="0 0 178 31" fill="none" xmlns="http://www.w3.org/2000/svg">
<path d="M150.158 16.8999L147.255 26.0999L164.864 23.6499L160.438 21.4999L164.817 16.8999H150.158Z" fill="#D65A57"/>
<path d="M155.107 5.55L152.49 13.2L163.246 13.15L165.864 10.15L170.956 4L155.107 5.55Z" fill="#487E65"/>
<path d="M175.62 10.2499L165.864 10.1499L159.105 18.0499L175.478 15.7999L175.62 10.2499Z" fill="#FDD31C"/>
<path d="M40.6449 15.5998C40.6449 22.4498 36.5519 26.5498 31.031 26.5498C25.4626 26.5498 21.6551 22.3998 21.6551 15.5998V5.5498H26.4144V15.5998C26.4144 19.5998 28.0326 21.9498 31.031 21.9498C33.9818 21.9498 35.838 19.5998 35.838 15.5998V5.5498H40.6449V15.5998Z" fill="white"/>
<path d="M60.5866 13.2498C60.5866 16.2498 59.2064 18.7498 57.1123 19.9498L61.1578 26.1498H55.2086L52.2578 20.9998H48.7834V26.1498H44.0241V5.5498H53.5428C57.5882 5.5498 60.5866 8.7998 60.5866 13.2498ZM48.831 10.1498V16.4498H52.9241C54.5422 16.4498 55.8273 14.9998 55.8273 13.2998C55.8273 11.5998 54.5422 10.1498 52.9241 10.1498H48.831Z" fill="white"/>
<path d="M82.9556 15.8499C82.9556 21.7499 78.3866 26.5499 72.8182 26.5499C67.2021 26.5499 62.6808 21.7499 62.6808 15.8499C62.6808 9.9999 67.2021 5.1499 72.8182 5.1499C78.3866 5.1499 82.9556 9.9999 82.9556 15.8499ZM67.0118 15.8499C67.0118 19.1999 69.6294 21.8999 72.8182 21.8999C75.9594 21.8999 78.577 19.1999 78.577 15.8499C78.577 12.4999 75.9594 9.7999 72.8182 9.7999C69.5818 9.7999 67.0118 12.4999 67.0118 15.8499Z" fill="white"/>
<path d="M103.183 20.1498C103.183 23.4998 101.136 26.1498 95.7583 26.1498H86.0968V5.5498H94.616C100.327 5.5498 102.088 7.8998 102.088 11.2498C102.088 13.3498 100.66 14.8498 100.232 15.1998C102.136 16.1498 103.183 17.9498 103.183 20.1498ZM97.5668 11.8498C97.5668 10.4498 96.7102 9.7998 94.9016 9.7998H90.8086V14.0998H94.9016C96.9481 14.0998 97.5668 13.4498 97.5668 11.8498ZM95.1872 17.8998H90.8086V21.8998H95.1872C97.0909 21.8998 98.0428 21.2498 98.0428 19.8998C98.0428 18.3498 97.0909 17.8998 95.1872 17.8998Z" fill="white"/>
<path d="M121.554 5.5498V10.1498H111.226V13.6998H119.841V17.9998H111.226V21.5498H121.554V26.1498H106.514V5.5498H121.554Z" fill="white"/>
<path d="M142.971 10.1498H135.975V26.1498H131.216V10.1498H124.219V5.5498H142.971V10.1498Z" fill="white"/>
<path d="M3.80748 5.5498V26.1498H18.8471V21.5498H8.51924V17.9998H17.1337V13.6998H8.51924V10.1498H18.8471V5.5498H3.80748Z" fill="white"/>
</svg>
