<svg width="97" height="88" viewBox="0 0 97 88" fill="none" xmlns="http://www.w3.org/2000/svg">
<g clip-path="url(#clip0_371_34705)">
<path d="M79.9875 37.8205C80.6516 38.806 80.6072 40.0954 80.7414 41.2512C80.6963 43.7001 80.9132 46.6157 80.4728 49.1053C80.2486 50.1386 79.5478 51.2097 78.443 51.5987C76.6746 52.3696 74.287 52.1544 72.653 51.2543C71.2796 50.3094 71.1083 48.724 70.9292 47.2197C70.7951 44.256 70.5711 41.1254 71.4145 38.4173C72.0784 36.7464 73.8917 36.3165 75.5262 36.187C77.2492 36.1868 78.9278 36.446 79.9875 37.8205Z" fill="#006BB6"/>
<path d="M55.8937 75.3719L55.5874 75.6312C50.984 76.6167 45.8443 76.6575 41.2388 75.5423L41.5859 75.157C45.6321 72.5377 51.9393 72.5377 55.8937 75.3719ZM40.3248 74.3864L39.4535 75.0718C35.7973 74.1272 32.406 72.4969 29.2722 70.2666V70.1369C30.3186 69.4921 31.3634 68.8067 32.4938 68.3365C34.973 70.7779 37.5397 72.6266 40.3248 74.3864ZM67.8994 70.1369C65.4671 72.067 62.6388 73.3564 59.7658 74.4273L57.7218 75.0718C57.3784 74.8977 57.0722 74.6457 56.7665 74.3864L56.8485 74.2567C59.6389 72.6261 62.1612 70.6517 64.5489 68.2919C65.7281 68.7664 66.8548 69.4072 67.8994 70.1369ZM63.2507 67.6917C61.8558 69.2774 60.072 70.6522 58.4157 71.8115C57.4163 72.4117 56.4158 73.0565 55.3713 73.5713L53.4983 72.7564L53.6324 72.4563C55.1994 70.3521 56.5949 68.207 57.8113 65.9324L57.9377 65.8438C59.811 66.2729 61.5947 66.8771 63.2507 67.6917ZM39.3251 65.8876C40.5844 68.2478 42.1512 70.4781 43.7182 72.7083C43.1065 73.0565 42.3696 73.2717 41.7577 73.6121C38.8887 72.197 36.1465 70.2226 33.8426 67.8626V67.7328C35.5383 66.9182 37.3217 66.3172 39.1478 65.8435L39.3251 65.8876ZM56.5056 65.5023L56.5428 65.6321C55.3344 67.9475 53.8045 70.1777 52.1555 72.282C51.4171 72.3671 50.7229 72.0673 49.9765 72.0227L49.2451 71.941C49.1561 69.4069 49.1112 67.1729 49.2451 64.6426C51.7226 64.6877 54.1998 64.9429 56.5056 65.5023ZM47.9339 71.8969C47.0235 72.1116 46.0218 72.1116 45.1508 72.3268C43.3656 70.2226 41.8881 67.9477 40.6271 65.5875L40.8452 65.4134C43.1062 64.9878 45.4565 64.6428 47.8928 64.6428L47.9339 71.8969ZM38.8007 62.0273C38.3643 62.0273 37.8865 61.9384 37.5826 62.0682L38.67 64.5983L38.5414 64.728C36.5809 65.2839 34.667 65.9733 32.7995 66.7471L32.6222 66.6586C31.404 65.3322 30.2305 63.8723 29.272 62.4094C29.0593 61.6831 28.1882 62.1092 27.7107 62.0278C28.7533 63.9134 30.143 65.588 31.5385 67.3034C30.3614 67.9928 29.1882 68.7671 27.9698 69.3225C25.3602 67.3478 22.9221 64.7728 21.0978 62.0687C20.5736 61.9832 20.2265 62.0278 19.7061 62.0687C22.8343 66.9622 27.7107 71.2526 32.7995 73.783L32.8406 73.7424L32.8873 73.8719C36.3215 75.543 39.974 76.7472 43.8466 77.2617C57.1991 79.0215 69.9441 73.3128 77.3383 62.0687C76.9503 62.0278 76.383 62.0278 75.9434 62.0687C74.1223 64.6879 71.8169 67.2215 69.2948 69.1927L68.8617 69.1519C67.7719 68.4665 66.5934 67.9034 65.5488 67.2215C66.944 65.5437 68.2946 63.8728 69.339 62.0278H67.9884C66.8989 63.6135 65.765 65.2844 64.3322 66.703C62.4145 65.9324 60.676 65.2435 58.721 64.728L58.505 64.5577C58.811 63.6982 59.3706 62.8828 59.5494 62.0273H58.3781L57.1991 64.3427C54.6324 63.7834 51.8043 63.4833 49.1925 63.3129C49.0656 62.9276 49.2449 62.368 49.0656 62.0273H47.9332C47.8474 62.5386 48.0639 62.9276 47.8063 63.3535C45.1069 63.4833 42.4973 63.7834 39.9735 64.2984L38.8007 62.0273ZM11.2224 29.0623L8.52504 29.1068C8.48215 31.5233 8.48215 33.9404 8.52504 36.3569C10.006 36.405 11.3977 36.3569 12.8341 36.4867V51.0835L12.7874 51.68L8.48215 51.7689C8.39437 54.128 8.39437 56.4896 8.48215 58.8487H27.6641V51.7689C26.2277 51.68 24.6198 51.8093 23.2281 51.6392L23.271 36.5756L23.3588 36.4459L27.6641 36.405C27.711 33.9561 27.7518 31.3406 27.6232 29.1066L11.2224 29.0623ZM85.1285 31.6407C79.4726 28.0359 70.8543 27.7767 65.0344 31.0367C61.8558 32.6668 59.7666 35.89 59.1175 39.1909C57.9385 44.6441 58.2444 51.1241 62.4151 55.2031C67.2952 59.4932 74.3839 60.4379 80.6888 58.6781C80.9867 58.6188 81.9423 58.378 82.5914 58.0296L82.778 57.9481C84.733 57.1335 86.606 55.7993 87.9934 53.9989C91.2172 49.2792 91.4337 42.1954 89.4712 36.8757C88.6949 34.8156 87.0835 32.9706 85.1285 31.6407ZM48.2399 30.2664C43.4534 28.2474 36.7564 28.0362 32.4062 31.1665C29.5782 33.2264 28.7071 36.9163 29.4478 40.1801C30.0148 43.2698 32.9715 45.5447 35.7976 46.6153C39.6722 47.9901 43.7182 48.9756 47.6282 50.309C48.0237 50.4796 48.5439 50.8646 48.4621 51.3391C48.4621 51.7243 48.0649 51.9393 47.7589 52.1096C43.6718 53.2251 39.2359 52.3689 36.2791 49.2792C35.9323 48.8496 35.7141 48.3345 35.3635 47.9047L29.4909 47.9492C29.4071 51.4242 29.3602 55.4148 29.4909 58.8489L36.0163 58.8083L36.1041 56.7447C36.8447 57.0926 37.5833 57.5188 38.3239 57.908C42.8474 59.7938 48.6788 60.2197 53.1559 57.908C56.4166 56.1002 58.1627 52.6252 57.6776 48.8946C57.2001 45.2455 53.7225 41.9409 50.2007 41.0368L39.6722 37.9915L38.8887 37.6024C38.5419 37.3023 38.3237 36.9171 38.4074 36.4466C39.2356 35.0312 41.1515 35.4611 42.5878 35.5019C45.6321 35.9316 48.7603 36.9616 50.5438 39.7512C52.4614 39.7512 54.6775 39.7921 56.7667 39.7107C56.849 36.1873 56.7218 33.0976 56.6774 29.5337C54.7224 29.4929 52.3273 29.4929 50.3722 29.5818C50.2827 30.0966 50.454 30.8228 50.2376 31.3413L48.2399 30.2664ZM51.7599 15.6731C53.4611 17.8181 55.1102 20.0075 56.2445 22.3675C53.8943 22.9269 51.5061 23.2233 49.0663 23.2233C48.977 20.9522 49.0214 18.4183 49.0663 16.0581C49.9391 15.9288 50.8944 15.7991 51.7599 15.6731ZM47.6764 16.0177C47.807 18.248 47.7175 20.8229 47.7175 23.1829C46.4976 23.3535 45.4136 23.1421 44.1957 23.0532C43.0187 22.8826 41.5392 22.7531 40.3677 22.3678C41.6288 20.0078 43.1062 17.7332 44.8894 15.6287L47.6764 16.0177ZM43.4534 15.2026L43.3244 15.5433C41.6699 17.6032 40.3677 19.8372 39.06 22.0266L38.8885 22.0674C37.1053 21.5967 35.3629 21.0373 33.7119 20.3076L33.7997 20.0481C36.1914 17.777 38.7134 15.8877 41.4983 14.4281C42.1512 14.6838 42.8003 14.9025 43.4534 15.2026ZM63.027 20.0967L62.9452 20.2227C61.2443 20.9527 59.5055 21.6381 57.6322 22.0268C56.2892 19.7485 54.8117 17.4774 53.1552 15.2878C53.7666 14.9433 54.5057 14.6838 55.1551 14.3431C57.9829 15.7585 60.7214 17.7775 63.027 20.0967ZM40.1907 13.6132C37.495 15.2878 34.8425 17.2622 32.4062 19.6631C31.2327 19.2332 30.1435 18.5924 29.1007 17.859V17.7773C31.8409 15.7582 34.8852 14.2577 38.105 13.2241L38.4947 12.9721V13.0535C38.8416 13.1425 39.1067 12.7534 39.4089 13.0127L40.1907 13.6132ZM67.5939 17.6886L67.5116 17.8592L64.5123 19.5373H64.288C61.9899 17.2182 59.2888 15.2028 56.5428 13.6134L57.3784 12.8834C61.0274 13.8281 64.4671 15.4584 67.5939 17.6886ZM55.6326 12.4536V12.539C51.8495 15.2878 45.7158 15.5433 41.7165 13.0132L41.0208 12.4536C45.6321 11.3794 51.066 11.294 55.6326 12.4536ZM51.1555 10.5234C49.977 10.3937 48.5441 10.3531 47.2811 10.4789C46.8036 10.4383 46.2385 10.4789 45.6732 10.5234C35.2325 11.3383 25.62 16.7029 19.6188 25.8463C20.0534 25.8019 20.5741 25.9723 21.0085 25.8019C22.0533 24.346 23.2286 22.9271 24.5323 21.5526C25.6626 20.4782 26.7092 19.4521 27.9274 18.6778C29.0598 19.4078 30.3188 20.0078 31.4045 20.6932C30.0557 22.3678 28.666 24.0424 27.6643 25.8465C27.9703 25.9725 28.5356 25.9317 28.9702 25.8465C30.0557 24.2573 31.2327 22.6679 32.6227 21.2528C34.4954 21.9382 36.3218 22.6679 38.2356 23.1829L38.4072 23.3535L37.3215 25.8468C37.799 25.9319 38.105 25.8876 38.5825 25.8468C38.976 25.1133 39.2782 24.2982 39.7129 23.5719C42.2349 24.1276 44.8894 24.4279 47.5868 24.5168C47.9337 24.813 47.6764 25.4615 47.8068 25.8468H48.9763C49.1107 25.4134 48.9394 24.943 49.1107 24.5574C51.6328 24.4277 54.2815 24.1684 56.7218 23.5719L56.938 23.6128L58.1095 25.8468C58.505 25.8468 59.0272 25.9319 59.3332 25.7579L58.2437 23.2721L58.333 23.1832C60.3331 22.6681 62.2056 21.8976 64.1157 21.1233C65.4668 22.5386 66.7276 24.2167 67.862 25.8468C68.3395 25.8468 68.8175 25.8876 69.1604 25.7579C68.6282 24.7985 68.0034 23.8928 67.2949 23.0534C66.7276 22.2383 66.1159 21.5123 65.3773 20.738V20.5231L68.422 18.7633L68.8622 18.5929C71.5112 20.6082 73.8617 23.0534 75.7269 25.7579C76.2493 25.7579 76.6895 25.9319 77.1224 25.717C71.2945 16.9624 61.684 11.3386 51.2822 10.5234L51.2375 10.6086L51.1555 10.5234ZM0 0.00927734H97V87.9903H0V0.00927734Z" fill="#006BB6"/>
</g>
<defs>
<clipPath id="clip0_371_34705">
<rect width="97" height="88" rx="12" fill="white"/>
</clipPath>
</defs>
</svg>
