<svg width="115" height="29" viewBox="0 0 115 29" fill="none" xmlns="http://www.w3.org/2000/svg">
<path d="M10.9424 15.2437H7.06186L9.12866 8.50029L10.9424 15.2437ZM5.04907 22.6751L6.37387 18.2344H11.602L12.8415 22.6637H17.6745L12.8728 5.77678C12.5885 4.77891 11.9915 4.31836 10.9424 4.31836H4.08817V5.91324H4.65675C5.37316 5.91324 5.7598 6.19753 5.7598 6.74052C5.7598 7.10157 5.6802 7.40292 5.39591 8.22453L0.585693 22.6751H5.04907Z" fill="#E5E5E5"/>
<path d="M23.2664 22.6751V5.7256C23.2664 4.84146 22.7489 4.31836 21.8932 4.31836H17.6431V5.91324H17.9274C18.6409 5.91324 18.9451 6.21743 18.9451 6.93953V22.6751H23.2664Z" fill="#E5E5E5"/>
<path d="M30.6127 22.6751V5.7256C30.6127 4.84146 30.0867 4.31836 29.2367 4.31836H25.0007V5.91324H25.285C26.0014 5.91324 26.3056 6.21743 26.3056 6.93953V22.6751H30.6127Z" fill="#E5E5E5"/>
<path d="M38.149 5.99297C38.149 4.76199 37.2365 4.00293 35.6729 4.00293C34.1093 4.00293 33.191 4.74777 33.191 5.99297C33.191 7.23817 34.132 7.98301 35.6729 7.98301C37.2137 7.98301 38.149 7.24385 38.149 5.99297ZM38.0666 22.6752V10.3199C38.0666 9.43859 37.5435 8.91833 36.6878 8.91833H32.5059V10.4819H32.7532C33.4668 10.4819 33.771 10.8117 33.771 11.5281V22.6752H38.0666Z" fill="#E5E5E5"/>
<path d="M47.528 16.0679V18.7431C46.8088 19.4851 45.9332 19.94 45.1912 19.94C44.4492 19.94 44.145 19.559 44.145 18.5185C44.145 17.478 44.361 17.0374 45.1343 16.7389C45.9043 16.4254 46.7073 16.2003 47.528 16.0679ZM41.7171 12.8554C43.0377 12.2003 44.4827 11.8339 45.9559 11.7808C47.1158 11.7808 47.528 12.193 47.528 13.3956V13.7026C45.7683 13.9869 45.2167 14.0949 44.2246 14.3139C43.6689 14.4363 43.1248 14.6065 42.5984 14.8227C40.8614 15.5192 40.0398 16.8611 40.0398 18.9222C40.0398 21.5377 41.177 22.8 43.5053 22.8C44.2973 22.8032 45.0827 22.6556 45.8194 22.365C46.4877 22.0608 47.109 21.6626 47.6645 21.1823V21.3757C47.6645 22.2285 48.1023 22.6635 48.958 22.6635H52.8955V21.1937H52.7021C51.9601 21.1937 51.6872 20.8611 51.6872 19.9826V13.4297C51.6872 9.93576 50.4733 8.71899 46.9737 8.71899C45.8642 8.72453 44.7589 8.85518 43.6787 9.10847C42.6582 9.33606 41.6751 9.70746 40.7591 10.2115L41.7171 12.8554Z" fill="#E5E5E5"/>
<path d="M59.1638 22.6749V13.3729C59.883 12.5741 60.6222 12.213 61.4751 12.213C62.3876 12.213 62.6122 12.5741 62.6122 13.9586V22.6749H66.905V13.3217C66.905 11.1441 66.7487 10.4561 66.0522 9.71692C65.4836 9.07727 64.5937 8.75317 63.4594 8.75317C61.7793 8.75317 60.5966 9.27343 59.0074 10.7603V10.2116C59.0074 9.35871 58.5611 8.91806 57.6826 8.91806H53.603V10.4817H53.8504C54.5639 10.4817 54.871 10.8114 54.871 11.5279V22.6749H59.1638Z" fill="#E5E5E5"/>
<path d="M79.6387 19.7868H73.6486L79.3771 11.7555V8.9126H70.3935C69.3757 8.9126 68.9066 9.37884 68.9066 10.3994V12.9012H70.5015V12.6567C70.5015 12.0227 70.8313 11.7214 71.5164 11.7214H74.6038L68.8157 19.8436V22.6865H79.6188L79.6387 19.7868Z" fill="#E5E5E5"/>
<path d="M102.175 22.3253V6.77171C102.175 5.5322 101.734 5.11429 100.531 5.11429H96.8897V6.86268H97.1086C97.9387 6.86268 98.1008 7.05032 98.1008 8.05102V22.3253H102.175ZM103.971 22.3253H108.014V10.2116C108.014 8.99487 107.545 8.55706 106.359 8.55706H103.971V22.3253ZM96.3154 22.3253V8.56843H93.9188C92.7333 8.56843 92.2699 9.00624 92.2699 10.223V22.3253H96.3154ZM111.841 14.4192C111.841 21.2734 106.911 26.2571 100.142 26.2571C93.373 26.2571 88.432 21.2734 88.432 14.4192C88.432 7.56488 93.3701 2.58125 100.142 2.58125C106.914 2.58125 111.841 7.59331 111.841 14.4192ZM114.234 14.4192C114.234 6.35949 108.204 0.323975 100.142 0.323975C92.0795 0.323975 86.0439 6.35949 86.0439 14.4192C86.0439 22.4788 92.0738 28.5115 100.142 28.5115C108.21 28.5115 114.234 22.4987 114.234 14.4192Z" fill="#E5E5E5"/>
</svg>
