<svg width="123" height="32" viewBox="0 0 123 32" fill="none" xmlns="http://www.w3.org/2000/svg">
<g clip-path="url(#clip0_13_600)">
<mask id="mask0_13_600" style="mask-type:luminance" maskUnits="userSpaceOnUse" x="0" y="0" width="123" height="32">
<path d="M0 0.754395H123V31.2456H0V0.754395Z" fill="white"/>
</mask>
<g mask="url(#mask0_13_600)">
<path d="M13.5036 13.8877H29.1338C29.0011 12.9455 28.7787 12.0189 28.47 11.1213H14.0747C12.9307 11.1213 12.4733 10.68 12.6451 9.67936L14.1834 1.34473C13.7904 1.36815 13.3986 1.40773 13.0087 1.46337L10.7286 10.3845C10.099 12.8854 10.9007 13.8858 13.502 13.8858L13.5036 13.8877Z" fill="white"/>
<path d="M12.6452 18.2447C8.44243 18.2447 6.5567 15.8608 7.842 12.0935L11.3729 1.80078C10.9412 1.91712 10.515 2.0543 10.0959 2.21186L5.66711 12.6515C3.5807 17.5966 6.21117 21.0091 12.2999 21.0091H28.4364C28.7504 20.1119 28.9787 19.1854 29.118 18.2428H12.642L12.6452 18.2447Z" fill="white"/>
<path d="M14.0748 11.1214H28.4702C26.5097 5.41119 21.2215 1.31982 15.0049 1.31982C14.729 1.31982 14.4563 1.32814 14.1854 1.34477L12.6469 9.67941C12.475 10.6801 12.9325 11.1211 14.0765 11.1211L14.0748 11.1214Z" fill="#009343"/>
<path d="M5.67057 12.653L10.0991 2.21387C4.6774 4.25345 0.872219 9.55754 0.731147 15.63C0.656429 32.3711 22.7012 36.5076 28.4409 21.0125H12.3045C6.21436 21.0125 3.5855 17.5981 5.67219 12.6546L5.67057 12.653Z" fill="#009343"/>
<path d="M12.6451 18.2447H29.1206C29.228 17.5196 29.283 16.7778 29.283 16.0228C29.284 15.3087 29.2335 14.5956 29.1319 13.8892H13.5023C10.901 13.8892 10.1009 12.8885 10.7289 10.388L13.0087 1.4668C12.452 1.54718 11.9068 1.65889 11.373 1.80275L7.84189 12.0949C6.55497 15.8623 8.44232 18.2464 12.6451 18.2464V18.2447ZM33.9972 17.386C33.9972 11.2697 38.3947 6.65391 44.2496 6.65391C47.9623 6.65391 50.904 8.88919 52.1311 12.3876L48.0192 13.5934C47.3912 11.7124 45.8478 10.6532 43.8504 10.6532C40.4523 10.6532 37.9955 13.3298 37.9955 17.0032C37.9955 19.8852 39.7952 21.7964 42.7078 21.7964C44.678 21.7964 46.4499 20.7087 47.3343 18.8562L50.9612 20.7373C49.2476 23.8543 45.9924 25.8526 42.307 25.8526C37.3384 25.8526 33.9972 22.2075 33.9972 17.3843V17.386ZM51.8195 19.0331C51.8195 14.2703 55.3328 10.3591 59.5877 10.3591C61.5864 10.3591 63.0716 11.0643 64.0434 12.506L64.7868 10.7719H67.8991L66.3853 25.4731H62.7015L62.9011 23.739C61.6161 25.179 60.016 25.8858 58.0167 25.8858C54.4759 25.8858 51.8195 22.9157 51.8195 19.0347V19.0331ZM63.4999 17.5931C63.4999 15.4462 62.0428 13.9762 59.9008 13.9762C57.4163 13.9762 55.5308 16.0042 55.5308 18.6505C55.5308 20.7971 56.9294 22.2674 59.0717 22.2674C61.5851 22.2674 63.498 20.2391 63.498 17.5931H63.4999ZM83.2633 20.5332L83.8912 14.4173H81.4064L81.7781 10.7722H84.2624L84.5774 7.80177L88.3761 6.65557L87.9478 10.7719H91.1755L90.8038 14.417H87.5761L86.9481 20.5332C86.8346 21.7393 87.4625 22.0919 88.8903 22.0919C89.2053 22.0919 89.6339 22.0617 90.0329 22.0337L89.6614 25.4731C88.9474 25.5618 88.3195 25.5901 87.7482 25.5901C84.0353 25.5901 82.9221 23.9144 83.2646 20.5332H83.2633ZM91.6316 25.4717L93.1456 10.7702H96.2581L96.6573 12.5043C97.7705 11.1514 99.5424 10.4764 101.198 10.4764L100.798 14.4153H100.198C98.1697 14.4153 96.3131 15.6219 96.0569 18.1796L95.3135 25.4714H91.63L91.6316 25.4717ZM100.656 18.9746C100.656 14.1819 104.369 10.3594 109.024 10.3594C112.966 10.3594 115.821 13.3298 115.821 17.2687C115.821 22.0617 112.109 25.8842 107.453 25.8842C103.512 25.8842 100.656 22.9141 100.656 18.9746ZM112.107 17.5931C112.107 15.505 110.736 14.0647 108.651 14.0647C106.223 14.0647 104.367 16.0344 104.367 18.6522C104.367 20.7406 105.738 22.1803 107.823 22.1803C110.251 22.1803 112.107 20.2109 112.107 17.5931ZM116.679 25.4717L118.478 7.80177L122.277 6.65557L120.364 25.4731H116.68L116.679 25.4717ZM67.782 21.828L71.5243 20.5349C72.0096 21.7997 72.8957 22.4461 74.2082 22.4461C75.5213 22.4461 76.2075 21.9466 76.2075 21.2415C76.2075 19.1248 69.4393 20.0958 69.4393 15.5382C69.4393 12.5395 71.9527 10.3641 75.3799 10.3641C77.8076 10.3641 79.6348 11.8346 80.3779 14.4508L76.7513 15.5097C76.4654 14.3335 75.8377 13.7456 74.8656 13.7456C73.8934 13.7456 73.238 14.3036 73.238 15.0104C73.238 17.0985 80.0925 15.8623 80.0925 20.7738C80.0925 23.8027 77.5511 25.8892 73.7524 25.8892C70.7537 25.8892 68.7253 24.5076 67.7839 21.8311L67.782 21.828Z" fill="#F00023"/>
</g>
</g>
<defs>
<clipPath id="clip0_13_600">
<rect width="123" height="32" fill="white"/>
</clipPath>
</defs>
</svg>
