<?xml version="1.0" encoding="utf-8"?>
<!-- Generator: $$$/GeneralStr/196=Adobe Illustrator 27.6.0, SVG Export Plug-In . SVG Version: 6.00 Build 0)  -->
<svg version="1.1" id="Livello_1" xmlns="http://www.w3.org/2000/svg" xmlns:xlink="http://www.w3.org/1999/xlink" x="0px" y="0px"
	 viewBox="0 0 1080 810" style="enable-background:new 0 0 1080 810;" xml:space="preserve">
<style type="text/css">
	.st0{fill:#012169;}
	.st1{fill:#FFFFFF;}
	.st2{fill:#C8102E;}
</style>
<path class="st0" d="M0,0h1080v810H0V0z"/>
<path class="st1" d="M126.6,0l411.8,305.4L948.4,0H1080v104.6L675,406.7l405,300.4V810H945L540,507.9L136.7,810H0V708.8l403.3-300.4
	L0,108V0H126.6z"/>
<path class="st2" d="M715.5,474.2L1080,742.5V810L622.7,474.2H715.5z M405,507.9l10.1,59.1l-324,243H0L405,507.9z M1080,0v5.1
	L659.8,322.3l3.4-74.2L995.6,0H1080z M0,0l403.3,297H302.1L0,70.9V0z"/>
<path class="st1" d="M406.7,0v810h270V0H406.7z M0,270v270h1080V270H0z"/>
<path class="st2" d="M0,325.7v162h1080v-162H0z M460.7,0v810h162V0H460.7z"/>
</svg>
