<svg width="110" height="29" viewBox="0 0 110 29" fill="none" xmlns="http://www.w3.org/2000/svg">
<g clip-path="url(#clip0_13_532)">
<path d="M50.2866 19.9507C49.3832 22.8856 47.7297 25.3139 45.5137 26.9037L47.491 28.9302L53.2698 23.0079L50.2866 19.9507Z" fill="#00ABF2"/>
<path d="M32.8142 2.02651L30.8368 0L25.0581 5.92229L28.0412 8.97952C28.9276 6.04458 30.5811 3.61627 32.8142 2.02651Z" fill="#00ABF2"/>
<path d="M33.3768 14.3778C33.3768 10.482 34.6382 7.38986 36.8372 6.1495L32.8142 2.02661C30.5812 3.61637 28.9447 6.04468 28.0413 8.97962L33.3938 14.4652V14.3778H33.3768Z" fill="#029744"/>
<path d="M50.2866 19.9506L44.934 14.4651V14.535C44.934 18.4133 43.6897 21.5229 41.4736 22.7633L45.5136 26.9036C47.7467 25.3139 49.3831 22.8856 50.2866 19.9506Z" fill="#029744"/>
<path d="M36.8371 6.16675C34.6381 7.40711 33.3767 10.4818 33.3767 14.3951V14.4649L39.1554 8.54265L36.8371 6.16675Z" fill="#00ABF2"/>
<path d="M39.1555 20.3874L41.4738 22.7633C43.6898 21.5229 44.9342 18.4133 44.9342 14.535V14.4651L39.1555 20.3874Z" fill="#00ABF2"/>
<path d="M39.1895 0.0349121C36.7519 0.0349121 34.587 0.751177 32.7971 2.02648L36.8201 6.14937C37.5019 5.76503 38.2519 5.55539 39.1043 5.55539C39.9566 5.55539 40.7407 5.76503 41.4226 6.18431L45.5137 1.99154C43.7579 0.751177 41.6271 0.0349121 39.1895 0.0349121Z" fill="#FBD700"/>
<path d="M44.9512 14.4475L50.3037 19.933C50.8151 18.2559 51.1049 16.4041 51.1049 14.4475V14.3601C51.1049 12.421 50.8322 10.6041 50.3208 8.927L44.9512 14.4475Z" fill="#FBD700"/>
<path d="M41.4397 6.18433L39.1555 8.52529L44.9342 14.4476C44.9342 10.6042 43.6387 7.4771 41.4397 6.18433Z" fill="#ED028D"/>
<path d="M50.3038 8.96205L53.2528 5.93976L47.4911 0L45.5479 1.99157C47.7639 3.58133 49.4174 6.00964 50.3038 8.96205Z" fill="#ED028D"/>
<path d="M45.5308 1.99146L41.4397 6.18423C43.6387 7.45953 44.9342 10.5866 44.9512 14.4475L50.3208 8.94447C49.4174 6.00953 47.7639 3.58121 45.5308 1.99146Z" fill="#C0101E"/>
<path d="M33.3766 14.465L28.0241 8.97949C27.5127 10.6566 27.2229 12.5084 27.2229 14.465V14.5524C27.2229 16.4915 27.4956 18.3259 27.99 19.9855L33.3766 14.465Z" fill="#FBD700"/>
<path d="M45.5138 26.8862L41.4738 22.7459C40.809 23.1302 40.0419 23.3224 39.1896 23.3224C38.3202 23.3224 37.5532 23.1127 36.8543 22.7109L32.7461 26.9037C34.5189 28.1441 36.6497 28.8603 39.1044 28.8603C41.5761 28.8778 43.7239 28.1615 45.5138 26.8862Z" fill="#FBD700"/>
<path d="M28.0071 19.968L25.0581 22.9903L30.8368 28.9126L32.763 26.9385C30.53 25.3662 28.8935 22.9204 28.0071 19.968Z" fill="#ED028D"/>
<path d="M36.8712 22.7283L39.1724 20.3874L33.3937 14.4651C33.3767 18.3434 34.6552 21.4705 36.8712 22.7283Z" fill="#ED028D"/>
<path d="M33.3767 14.4651L28.0071 19.9681C28.8935 22.9205 30.5299 25.3663 32.7801 26.9386L36.8712 22.7458C34.6552 21.4705 33.3767 18.3434 33.3767 14.4651Z" fill="#C0101E"/>
<path d="M39.1554 8.52539L33.3767 14.4652L39.1554 20.3874L44.9341 14.4652L39.1554 8.52539Z" fill="#3F389D"/>
<path d="M105.312 3.80835L104.903 6.63847H97.7267C100.608 7.33727 102.875 9.62582 103.591 12.5608C105.278 13.9933 106.25 16.1945 106.25 19.3216C106.25 25.6108 101.664 28.9824 95.8857 28.9999C103.676 28.9999 109.983 22.5361 109.983 14.5523C110 10.2897 108.193 6.46377 105.312 3.80835Z" fill="#ED028D"/>
<path d="M95.9026 0.122314V1.58978H102.09C100.232 0.646411 98.1357 0.122314 95.9026 0.122314Z" fill="#ED008C"/>
<path d="M88.0442 13.4343C87.9931 13.8012 87.959 14.1681 87.959 14.5524C87.959 19.0422 91.5217 22.6934 95.9026 22.6934V15.6879C94.8798 15.6879 93.7206 16.0024 92.8342 16.5614L88.0442 13.4343Z" fill="#00ABF2"/>
<path d="M93.6526 10.8488C94.4367 10.6567 94.9992 10.5518 95.9027 10.5169V6.42896C95.3231 6.42896 94.7776 6.49883 94.2492 6.60365L93.6526 10.8488Z" fill="#00ABF2"/>
<path d="M103.608 12.561C101.937 11.1459 99.5505 10.4995 96.6697 10.4995C96.3969 10.4995 96.1412 10.4995 95.9026 10.517V15.6881C99.0221 15.6881 100.744 17.1206 100.744 19.3043C100.744 21.1911 98.8005 22.5188 96.3969 22.6935C100.556 22.4314 103.829 18.8851 103.829 14.57C103.846 13.8712 103.761 13.2073 103.608 12.561Z" fill="#FBD700"/>
<path d="M93.6527 10.8487L94.2493 6.60352C91.0105 7.30231 88.5047 10.0451 88.0444 13.4342L92.8515 16.5439C93.7379 16.0023 94.8971 15.6879 95.9198 15.6879V10.5168C94.9993 10.5517 94.4368 10.6565 93.6527 10.8487Z" fill="#029744"/>
<path d="M89.6809 1.60725C85.0272 3.96569 81.8225 8.87473 81.8225 14.5699C81.8225 18.5006 83.3567 22.047 85.8284 24.65C88.3853 27.3404 91.9651 29 95.9028 29V22.7109C93.4822 22.7109 91.3173 21.5928 89.8513 19.8458C88.6751 18.4307 87.9592 16.5789 87.9592 14.5699C87.9592 14.1856 87.9933 13.8187 88.0444 13.4518C88.5047 10.0452 91.0105 7.31991 94.2493 6.62111C94.7777 6.49882 95.3402 6.44641 95.9028 6.44641V1.58978V1.57231V0.122314C93.6868 0.122314 91.5901 0.646411 89.732 1.57231L89.6809 1.60725Z" fill="#3F389D"/>
<path d="M94.2493 6.60359C94.7777 6.4813 95.3402 6.42889 95.9027 6.42889V1.57227H89.732L89.6979 1.58974L88.0273 13.4343C88.5046 10.0452 91.0105 7.31986 94.2493 6.60359Z" fill="black"/>
<path d="M85.8113 24.6326V24.6501C88.3682 27.3404 91.948 29.0001 95.8857 29.0001V22.6934C93.4651 22.6934 91.3002 21.5754 89.8342 19.8284L85.8113 24.6326Z" fill="black"/>
<path d="M106.267 19.3216C106.267 16.212 105.295 13.9933 103.608 12.5608C103.761 13.2072 103.846 13.871 103.846 14.5698C103.846 18.8849 100.556 22.4313 96.414 22.6933C96.2776 22.6933 96.0731 22.7108 95.9026 22.7108V28.9999C101.681 28.9825 106.267 25.6108 106.267 19.3216Z" fill="#C0101E"/>
<path d="M95.9028 6.429C96.5335 6.429 97.1472 6.51635 97.7267 6.65611H104.903L105.295 3.82599C104.341 2.93502 103.199 2.18382 102.057 1.58984H95.8857V6.429H95.9028Z" fill="#C0101E"/>
<path d="M67.0773 19.9158H58.7075V28.4411H67.0773V19.9158Z" fill="#ED028D"/>
<path d="M77.7484 10.0102C77.7484 7.18012 76.4358 3.54639 72.9924 1.69458V18.6753C75.9414 17.1729 77.7484 14.3253 77.7484 10.0102Z" fill="#00ABF2"/>
<path d="M67.0771 28.4234H72.9922V18.6577C71.3387 19.4963 69.3273 19.9155 67.0771 19.9155V28.4234Z" fill="#FBD700"/>
<path d="M72.9922 1.6771C71.6115 0.925897 69.8898 0.47168 67.759 0.47168H67.0771V10.3422V19.9157C69.3273 19.9157 71.3387 19.4964 72.9922 18.6578V1.6771Z" fill="#029744"/>
<path d="M67.0773 0.47168H58.7075V19.9157H67.0773V0.47168Z" fill="#3F389D"/>
<path d="M60.2417 6.41144V10.3771H67.0773V0.47168C67.0773 4.69939 64.6567 6.41144 60.2417 6.41144Z" fill="black"/>
<path d="M3.80133 10.3072C4.72183 9.0494 5.67643 8.0012 6.64807 7.25H0L3.80133 10.3072Z" fill="#FBD700"/>
<path d="M14.7451 17.9764H19.6886V10.9011C19.1772 13.6614 17.5407 15.6005 14.7451 17.9764Z" fill="#ED028D"/>
<path d="M13.5177 10.8489H0V17.9766H6.66512L9.06865 15.9676C11.6086 13.8013 12.9893 12.4037 13.5177 10.8489Z" fill="#ED028D"/>
<path d="M19.8761 8.75252C19.8761 8.22842 19.842 7.73926 19.7738 7.26758H13.228C13.586 7.75673 13.7735 8.42059 13.7735 9.27661C13.7735 9.83565 13.6883 10.3597 13.5178 10.8664H19.6886V10.9188C19.8079 10.2724 19.8761 9.59107 19.8761 8.83987V8.75252Z" fill="#FBD700"/>
<path d="M13.5177 10.8488C12.9892 12.4036 11.6085 13.8012 9.06857 15.95L6.66504 17.959H14.745C17.5406 15.5831 19.1771 13.6439 19.6884 10.8837V10.8313H13.5177V10.8488Z" fill="#C0101E"/>
<path d="M12.7165 19.6187C13.4495 19.0422 14.1314 18.4832 14.7451 17.9766H6.66509L2.28418 21.6452H10.1596L12.7165 19.6187Z" fill="#FBD700"/>
<path d="M10.1595 21.6453L8.28442 23.1302H19.6884V21.6453H10.1595Z" fill="#00ABF2"/>
<path d="M0 21.6453V23.5669L2.28421 21.6453H0Z" fill="#00ABF2"/>
<path d="M10.1596 21.6453H2.28421L0 23.5669V28.4236H19.6885V23.1302H8.28452L10.1596 21.6453Z" fill="#029744"/>
<path d="M10.1595 5.97478C8.9492 5.93984 7.77301 6.39405 6.64795 7.25008H13.2278C12.6142 6.39405 11.5232 6.02719 10.1595 5.97478Z" fill="#00ABF2"/>
<path d="M19.7568 7.26742V0.489105H10.4495C15.5293 0.471635 19.109 2.95236 19.7568 7.26742Z" fill="#00ABF2"/>
<path d="M10.4494 0.47168H0V7.24999C2.36944 3.33674 5.57415 0.47168 10.4494 0.47168Z" fill="#00ABF2"/>
<path d="M10.4494 0.47168C5.57415 0.47168 2.36944 3.33674 0 7.26746H6.64807C7.77313 6.41144 8.93228 5.93975 10.1596 5.99216C11.5233 6.04457 12.6143 6.41144 13.228 7.26746H19.7737C19.1089 2.9524 15.5292 0.47168 10.4494 0.47168Z" fill="#029744"/>
</g>
<defs>
<clipPath id="clip0_13_532">
<rect width="110" height="29" fill="white"/>
</clipPath>
</defs>
</svg>
