<svg width="88" height="88" viewBox="0 0 88 88" fill="none" xmlns="http://www.w3.org/2000/svg">
<path d="M20.2549 27.8066V20.1055H0.130432V27.8066H4.74746V44.2798H0.130432V51.981H20.2549V44.2798H15.6379V27.8066H20.2549Z" fill="#00539F"/>
<path d="M42.4635 32.3364C41.2196 31.975 34.8194 30.1454 33.7112 29.784C32.6031 29.4226 31.6984 28.903 31.6984 28.248C31.6984 27.5929 32.7161 26.8927 34.7742 26.8927C41.2648 26.8927 44.3829 30.8908 44.3829 30.8908C44.3829 30.8908 44.7343 31.3583 44.852 31.526H51.1142V20.618H44.3916V22.6025C43.8781 22.2483 40.0874 19.7773 34.2088 19.7773C26.4516 19.7773 22.132 23.7981 22.132 29.8066C22.132 35.815 27.5824 38.2998 29.0976 38.9322C30.6129 39.5647 36.5382 41.2362 39.0711 42.0268C41.6041 42.8174 42.5313 43.3821 42.5313 43.7887C42.5313 44.1953 41.4232 45.257 38.257 45.257C32.7418 45.257 29.9017 42.0086 29.4032 41.3795V41.3747C29.2447 41.1625 29.0587 40.9115 28.9956 40.817C28.9225 40.7077 28.753 40.465 28.6354 40.2973H22.3732V51.9458H29.4032V49.5133C30.2212 50.0571 34.4083 52.6659 39.433 52.6659C45.0417 52.6659 52.1882 50.2264 52.1882 42.6141C52.1882 35.0019 43.7073 32.6979 42.4635 32.3364Z" fill="#00539F"/>
<path d="M70.0383 19.6699C60.6884 19.6699 53.0201 24.339 53.0201 36.2579C53.0201 48.1767 61.3446 52.6411 70.0791 52.6411C78.8137 52.6411 87.0563 48.2176 87.0563 36.3809C87.0563 24.5443 78.814 19.6699 70.0383 19.6699ZM70.1204 44.6952C66.9216 44.6952 64.8712 43.958 64.8712 36.217C64.8712 28.4759 66.3886 27.6568 70.2432 27.6568C72.5806 27.6568 75.4103 27.8205 75.4103 35.9713C75.4103 44.122 73.3192 44.6952 70.1204 44.6952Z" fill="#00539F"/>
<path d="M13.5399 16.5904C15.6417 13.4905 18.2264 10.7427 21.1894 8.46076C22.3875 9.3455 23.6611 10.148 24.9999 10.8633C22.7568 13.3606 20.7471 16.1274 20.4142 16.5904H21.7601C22.5679 15.5029 24.2389 13.3153 26.001 11.3757C27.9269 12.3214 29.9737 13.0948 32.1093 13.6839C31.5409 14.8885 31.1112 15.9418 30.859 16.5904H32.0283C32.297 15.9225 32.6907 14.991 33.1819 13.9616C35.9062 14.6265 38.7609 14.9991 41.6812 15.0558V16.5906H42.7667V15.0611C45.6657 15.0399 48.5046 14.71 51.2194 14.09C51.6822 15.0678 52.0547 15.9505 52.3122 16.5904H53.4815C53.239 15.9675 52.8334 14.9718 52.2977 13.8263C54.4715 13.2614 56.5574 12.5082 58.5219 11.5774C60.2164 13.4654 61.8006 15.5407 62.5806 16.5904H63.9263C63.6037 16.1417 61.698 13.5173 59.5325 11.0779C61.0214 10.3094 62.4329 9.43495 63.7524 8.46076C66.7154 10.7427 69.3003 13.4905 71.4019 16.5904H72.7077C66.287 6.69291 55.1322 0.130371 42.4707 0.130371C29.8092 0.130371 18.6545 6.69291 12.2338 16.5904H13.5399ZM32.5937 12.6924C30.5623 12.1443 28.6132 11.4258 26.7757 10.5468C27.0254 10.2877 27.2748 10.0367 27.5215 9.79907C30.0376 7.37562 34.1761 4.71453 35.0832 4.14169C35.8194 4.54557 36.6227 4.88711 37.4772 5.15817C36.8136 6.02737 35.5106 7.79179 34.0916 10.0298C33.5392 10.9008 33.036 11.8163 32.5937 12.6924ZM41.6812 13.9712C38.9319 13.9163 36.2437 13.5744 33.6742 12.9658C34.076 12.1811 34.5243 11.3737 35.0087 10.6101C36.6435 8.03194 38.1184 6.09622 38.6098 5.46645C39.5902 5.69649 40.6206 5.84196 41.6812 5.88949V13.9712ZM42.7667 13.9766V5.90178C43.813 5.88407 44.8367 5.77347 45.8164 5.57669C46.378 6.30222 47.7834 8.16784 49.332 10.6101C49.8415 11.4137 50.3113 12.2655 50.7291 13.0887C48.1686 13.6543 45.496 13.9564 42.7667 13.9766ZM51.8173 12.8319C51.3583 11.9139 50.8306 10.9471 50.2489 10.0298C48.9032 7.90726 47.6613 6.21042 46.9707 5.2993C47.8795 5.04432 48.7374 4.71291 49.5252 4.31192C50.7987 5.12727 54.4976 7.56319 56.819 9.79907C57.1271 10.096 57.4394 10.4131 57.7513 10.742C55.8755 11.607 53.8871 12.3073 51.8173 12.8319ZM62.8435 7.78293C61.5699 8.7011 60.2092 9.52368 58.7764 10.2469C58.376 9.81787 57.9722 9.40351 57.5726 9.0186C55.4013 6.92729 52.1683 4.73333 50.5843 3.70312C51.1224 3.35472 51.6145 2.96945 52.0533 2.55003C55.9741 3.66897 59.6141 5.45814 62.8435 7.78293ZM42.4711 1.21461C45.3377 1.21461 48.1238 1.56392 50.7915 2.21771C48.7669 3.86015 45.7334 4.82368 42.4711 4.82368C39.194 4.82368 36.1688 3.86323 34.1469 2.21862C36.8156 1.56428 39.6029 1.21461 42.4711 1.21461ZM32.8884 2.55003C33.2456 2.89193 33.6365 3.21178 34.0601 3.50669C32.625 4.42902 29.0903 6.782 26.7681 9.01842C26.4337 9.34044 26.0967 9.68342 25.7609 10.038C24.4765 9.36628 23.2516 8.614 22.0989 7.78293C25.3277 5.45814 28.9676 3.66915 32.8884 2.55003Z" fill="#00539F"/>
<path d="M71.4038 55.5929C69.3466 58.6276 66.8264 61.3244 63.9419 63.5775C62.5681 62.5456 61.0936 61.6233 59.5342 60.8177C61.4127 58.7013 63.0959 56.4457 63.719 55.5931H62.3671C61.5338 56.7045 60.075 58.5898 58.5233 60.3186C56.5589 59.3874 54.4732 58.6337 52.299 58.069C52.7587 57.0858 53.1218 56.2144 53.369 55.5931H52.1962C51.9476 56.1989 51.6171 56.9674 51.2199 57.8064C48.5068 57.1873 45.6683 56.8575 42.7669 56.8366V55.5931H41.6814V56.8415C38.7587 56.898 35.9043 57.2703 33.1815 57.9342C32.7574 57.0457 32.4059 56.2294 32.1448 55.5931H30.9719C31.2308 56.2444 31.6172 57.1703 32.1086 58.2116C29.9725 58.8009 27.9249 59.5732 25.9992 60.5194C24.381 58.7378 22.84 56.7477 21.9739 55.5929H20.6221C21.2658 56.4739 23.0437 58.856 24.9999 61.0335C23.591 61.787 22.2533 62.6362 21.0004 63.5773C18.1157 61.3242 15.5954 58.6274 13.5385 55.5928H12.2347C18.6556 65.4902 29.81 72.0528 42.4713 72.0528C55.1324 72.0528 66.287 65.4904 72.7079 55.5928L71.4038 55.5929ZM51.8179 59.064C53.8884 59.5884 55.8768 60.2884 57.7528 61.1538C57.4403 61.4831 57.1279 61.8008 56.8192 62.0982C54.505 64.3269 50.8179 66.7572 49.5348 67.579C48.7471 67.1764 47.888 66.845 46.9763 66.59C47.6682 65.6773 48.9068 63.9837 50.2489 61.8671C50.831 60.9496 51.3587 59.9823 51.8179 59.064ZM42.7668 57.9206C45.4982 57.9409 48.1708 58.2421 50.7296 58.807C50.3117 59.6307 49.8418 60.4827 49.3318 61.287C47.7854 63.7258 46.3822 65.5895 45.819 66.3172C44.842 66.1227 43.8183 66.013 42.7666 65.9957V57.9206H42.7668ZM41.6812 57.9261V66.0069C40.6166 66.054 39.5852 66.1977 38.606 66.4261C38.1112 65.7917 36.641 63.8614 35.0087 61.287C34.524 60.5228 34.0753 59.7149 33.6733 58.9295C36.2413 58.3216 38.9295 57.9808 41.6812 57.9261ZM32.5932 59.2038C33.0357 60.0804 33.5392 60.9959 34.0916 61.8673C35.5095 64.1035 36.8116 65.8668 37.4758 66.7368C36.62 67.0076 35.8176 67.3495 35.0818 67.7545C34.1712 67.1791 30.0363 64.52 27.5216 62.0982C27.2747 61.8604 27.0252 61.609 26.7751 61.3497C28.6123 60.4704 30.5612 59.7517 32.5932 59.2038ZM21.9023 64.2571C23.1121 63.3688 24.4021 62.5679 25.7593 61.8579C26.0954 62.2128 26.4332 62.5563 26.7679 62.8787C29.0895 65.1146 32.6232 67.467 34.0588 68.3897C33.5474 68.7473 33.0811 69.1405 32.6668 69.5673C28.7512 68.4213 25.1191 66.607 21.9023 64.2571ZM42.4711 70.9687C39.5106 70.9687 36.6354 70.5974 33.8886 69.9015C35.8943 68.141 39.0793 67.0736 42.4711 67.0736C45.8588 67.0736 49.0468 68.1418 51.0528 69.9017C48.3061 70.5976 45.4312 70.9687 42.4711 70.9687ZM52.2747 69.5673C51.7823 69.0605 51.2194 68.5982 50.5914 68.1893C52.1781 67.1573 55.4046 64.9667 57.5726 62.8785C57.9724 62.4934 58.3762 62.0789 58.777 61.6495C60.2828 62.4103 61.71 63.2806 63.0398 64.2569C59.8227 66.6072 56.1905 68.4215 52.2747 69.5673Z" fill="#00539F"/>
<path d="M2.20098 83.5516C2.24928 84.4486 2.59576 85.0686 3.24075 85.4116C3.57221 85.5923 3.94582 85.6825 4.36176 85.6825C5.1392 85.6825 5.80211 85.359 6.35067 84.7119C6.89906 84.0648 7.28787 82.7509 7.51692 80.7705C7.15525 81.3423 6.70782 81.7442 6.17445 81.9758C5.64109 82.2077 5.06701 82.3235 4.45223 82.3235C3.20457 82.3235 2.21762 81.9357 1.49139 81.1601C0.764974 80.3843 0.402039 79.3861 0.402039 78.1653C0.402039 76.9928 0.760633 75.9614 1.47782 75.0714C2.19501 74.1814 3.25287 73.7363 4.65106 73.7363C6.53739 73.7363 7.83933 74.5846 8.55651 76.281C8.95437 77.2135 9.1532 78.3805 9.1532 79.7822C9.1532 81.3643 8.91511 82.7659 8.43909 83.9873C7.64935 86.0206 6.31141 87.0372 4.42509 87.0372C3.15934 87.0372 2.1979 86.706 1.54114 86.0439C0.884204 85.3818 0.555644 84.5511 0.555644 83.5518H2.20098V83.5516ZM6.43661 80.2613C6.96998 79.8375 7.23666 79.0968 7.23666 78.0389C7.23666 77.0893 6.99712 76.3817 6.51785 75.9158C6.03876 75.4501 5.4285 75.2172 4.68725 75.2172C3.89172 75.2172 3.26029 75.4832 2.79314 76.015C2.326 76.5469 2.09242 77.2578 2.09242 78.1472C2.09242 78.9886 2.29723 79.6574 2.70721 80.1532C3.117 80.6491 3.77086 80.8968 4.66897 80.8968C5.31397 80.8968 5.90325 80.685 6.43661 80.2613Z" fill="#00539F"/>
<path d="M18.682 75.8217C19.2606 76.8872 19.5499 78.3471 19.5499 80.2012C19.5499 81.9589 19.2877 83.4125 18.7634 84.5625C18.0041 86.2118 16.7622 87.0366 15.0387 87.0366C13.4837 87.0366 12.3265 86.3625 11.5671 85.0139C10.9342 83.8883 10.6178 82.3772 10.6178 80.4811C10.6178 79.0123 10.8078 77.7511 11.1874 76.6974C11.8984 74.7351 13.1853 73.7539 15.0476 73.7539C16.7231 73.7539 17.9346 74.4433 18.682 75.8217ZM17.0444 84.4358C17.5454 83.6895 17.796 82.299 17.796 80.2642C17.796 78.7954 17.6147 77.5869 17.2527 76.6389C16.8905 75.6907 16.187 75.2167 15.1427 75.2167C14.1827 75.2167 13.4809 75.6667 13.0373 76.5668C12.5935 77.4667 12.3717 78.7924 12.3717 80.5443C12.3717 81.8626 12.5135 82.9222 12.7972 83.7228C13.2318 84.9449 13.9745 85.5558 15.0248 85.5558C15.8701 85.5557 16.5431 85.1823 17.0444 84.4358Z" fill="#00539F"/>
<path d="M28.9792 75.8217C29.5578 76.8872 29.8471 78.3471 29.8471 80.2012C29.8471 81.9589 29.5849 83.4125 29.0606 84.5625C28.3012 86.2118 27.0594 87.0366 25.3359 87.0366C23.7808 87.0366 22.6236 86.3625 21.8643 85.0139C21.2314 83.8883 20.915 82.3772 20.915 80.4811C20.915 79.0123 21.105 77.7511 21.4845 76.6974C22.1956 74.7351 23.4825 73.7539 25.3447 73.7539C27.0205 73.7539 28.2318 74.4433 28.9792 75.8217ZM27.3416 84.4358C27.8426 83.6895 28.0932 82.299 28.0932 80.2642C28.0932 78.7954 27.9119 77.5869 27.5499 76.6389C27.1877 75.6907 26.4842 75.2167 25.4399 75.2167C24.4799 75.2167 23.7781 75.6667 23.3345 76.5668C22.8907 77.4667 22.6689 78.7924 22.6689 80.5443C22.6689 81.8626 22.8107 82.9222 23.0944 83.7228C23.529 84.9449 24.2717 85.5558 25.322 85.5558C26.1672 85.5557 26.8403 85.1823 27.3416 84.4358Z" fill="#00539F"/>
<path d="M32.4055 77.529V76.2828C33.5808 76.1684 34.4004 75.9774 34.8645 75.7094C35.3285 75.4416 35.675 74.8081 35.9042 73.8086H37.1879V86.6848H35.4521V77.5288L32.4055 77.529Z" fill="#00539F"/>
<path d="M42.9831 77.1401H44.8727V79.1086H42.9831V77.1401ZM42.9831 84.7159H44.8727V86.6845H42.9831V84.7159Z" fill="#00539F"/>
<path d="M47.3451 83.7774C47.7458 82.9528 48.5278 82.2032 49.6911 81.529L51.4269 80.5268C52.2045 80.0752 52.7498 79.6896 53.0634 79.3701C53.5573 78.8694 53.8046 78.2965 53.8046 77.651C53.8046 76.8971 53.5787 76.2985 53.1267 75.8552C52.6746 75.4119 52.0719 75.1902 51.3185 75.1902C50.2035 75.1902 49.432 75.613 49.0041 76.4582C48.7751 76.9111 48.6484 77.5388 48.6244 78.3417H46.97C46.9881 77.2161 47.196 76.2979 47.5937 75.5877C48.2987 74.3356 49.5433 73.7095 51.3274 73.7095C52.8101 73.7095 53.8935 74.1099 54.5775 74.9104C55.2614 75.7112 55.6037 76.602 55.6037 77.5833C55.6037 78.6185 55.239 79.5036 54.5099 80.2379C54.0878 80.6654 53.3313 81.183 52.2405 81.791L51.0019 82.4774C50.4112 82.8024 49.9473 83.1125 49.6099 83.4073C49.007 83.931 48.6273 84.5119 48.4706 85.15H55.5404V86.6851H46.6536C46.7136 85.5714 46.9443 84.6021 47.3451 83.7774Z" fill="#00539F"/>
<path d="M65.0149 75.8217C65.5935 76.8872 65.8828 78.3471 65.8828 80.2012C65.8828 81.9589 65.6208 83.4125 65.0963 84.5625C64.337 86.2118 63.0951 87.0366 61.3716 87.0366C59.8165 87.0366 58.6593 86.3625 57.9 85.0139C57.2673 83.8883 56.9509 82.3772 56.9509 80.4811C56.9509 79.0123 57.1407 77.7511 57.5202 76.6974C58.2315 74.7351 59.5182 73.7539 61.3806 73.7539C63.056 73.7539 64.2675 74.4433 65.0149 75.8217ZM63.3773 84.4358C63.8785 83.6895 64.1289 82.299 64.1289 80.2642C64.1289 78.7954 63.9476 77.5869 63.5854 76.6389C63.2232 75.6907 62.5199 75.2167 61.4756 75.2167C60.5156 75.2167 59.8138 75.6667 59.3702 76.5668C58.9262 77.4667 58.7044 78.7924 58.7044 80.5443C58.7044 81.8626 58.8462 82.9222 59.1301 83.7228C59.5647 84.9449 60.3074 85.5558 61.3577 85.5558C62.2031 85.5557 62.876 85.1823 63.3773 84.4358Z" fill="#00539F"/>
<path d="M68.4413 77.529V76.2828C69.6166 76.1684 70.436 75.9774 70.9004 75.7094C71.3643 75.4416 71.7108 74.8081 71.94 73.8086H73.2239V86.6848H71.4879V77.5288L68.4413 77.529Z" fill="#00539F"/>
<path d="M79.2537 83.3891C79.3623 84.3161 79.7931 84.9572 80.5466 85.3125C80.9324 85.493 81.3785 85.5834 81.8847 85.5834C82.8491 85.5834 83.5632 85.2764 84.0274 84.6621C84.4913 84.0483 84.7236 83.3681 84.7236 82.6216C84.7236 81.7186 84.4479 81.0204 83.8964 80.5267C83.345 80.033 82.6835 79.7861 81.9121 79.7861C81.3514 79.7861 80.8708 79.8946 80.4701 80.1112C80.0692 80.3279 79.7272 80.629 79.4439 81.0142L78.0336 80.9329L79.0193 73.9712H85.7451V75.5423H80.2394L79.6878 79.1361C79.9892 78.9074 80.2754 78.7359 80.5466 78.6213C81.0288 78.4227 81.5864 78.3235 82.2191 78.3235C83.4063 78.3235 84.413 78.7057 85.2386 79.4703C86.0643 80.2347 86.4772 81.204 86.4772 82.3778C86.4772 83.6 86.0989 84.6775 85.3426 85.6105C84.5861 86.5437 83.3792 87.0101 81.7217 87.0101C80.6669 87.0101 79.7343 86.7134 78.9237 86.1206C78.1132 85.5279 77.6594 84.6173 77.563 83.3892L79.2537 83.3891Z" fill="#00539F"/>
</svg>
