<svg width="63" height="45" viewBox="0 0 63 45" fill="none" xmlns="http://www.w3.org/2000/svg">
<path d="M23.9058 14.1389V27.9606C23.9058 28.4189 23.5179 28.8068 23.0596 28.8068H20.4504C19.992 28.8068 19.6042 28.4189 19.6042 27.9606V14.1389C19.6042 13.6806 19.992 13.2927 20.4504 13.2927H23.0596C23.5179 13.2927 23.9058 13.6453 23.9058 14.1389Z" fill="url(#paint0_radial_330_1012)"/>
<path d="M26.1976 17.4886H27.0439V25.9156C26.4445 26.5855 25.8098 27.1849 25.1046 27.749V17.1713C25.4219 17.3828 25.7745 17.4886 26.1976 17.4886Z" fill="white"/>
<path d="M8.1449 14.1037V20.4504C8.1449 21.0498 8.28592 21.6139 8.56799 22.1781C8.85007 22.7422 9.23794 23.2359 9.73157 23.6942C10.2252 24.1526 10.8246 24.5405 11.5298 24.8578C12.235 25.1751 12.9754 25.3514 12.9754 25.3514C13.0459 25.3514 13.1164 25.3867 13.1517 25.3867C13.5043 25.3867 13.7864 25.1046 13.7864 24.7168V14.0685C13.7864 13.6101 14.1742 13.2222 14.6326 13.2222H17.2065C17.6649 13.2222 18.0527 13.6101 18.0527 14.0685V27.9606C18.0527 28.419 17.6649 28.8068 17.2065 28.8068H15.5846C13.9979 28.8068 12.4818 28.5953 11.0714 28.1369C9.66104 27.6785 8.42696 27.0791 7.33392 26.3387C6.27614 25.5982 5.42993 24.6815 4.83052 23.6942C4.19585 22.6717 4.01956 21.3319 4.01956 21.3319C3.94904 20.8735 3.91379 20.133 3.91379 19.6394V14.139C3.91379 13.6806 4.30163 13.2927 4.76 13.2927H7.33392C7.79229 13.2575 8.1449 13.6453 8.1449 14.1037Z" fill="url(#paint1_radial_330_1012)"/>
<path d="M30.5698 12.0939H26.1976C25.563 12.0939 24.9988 12.376 24.611 12.8344C24.2231 12.376 23.6942 12.0939 23.0596 12.0939H20.4504C19.7804 12.0939 19.2163 12.4113 18.8285 12.9049C18.4759 12.4113 17.8764 12.0587 17.2065 12.0587H14.6326C13.5043 12.0587 12.6228 12.9754 12.6228 14.0684V24.0116C12.4465 23.941 12.235 23.8705 12.0587 23.7647C11.4593 23.4827 10.9656 23.1653 10.5778 22.7775C10.1899 22.4249 9.8726 22.037 9.66105 21.6139C9.44949 21.2261 9.37898 20.8382 9.37898 20.4151V14.0684C9.37898 12.9402 8.46223 12.0587 7.36919 12.0587H4.79527C3.66698 12.0587 2.78549 12.9754 2.78549 14.0684V19.5689C2.78549 20.0978 2.856 20.9087 2.92651 21.4024C2.96177 21.5787 3.17335 23.0243 3.91379 24.2231C4.61898 25.3514 5.57097 26.3739 6.76978 27.2202C7.93334 28.0311 9.27319 28.701 10.8246 29.1947C12.3407 29.6883 13.9979 29.9351 15.7256 29.9351H17.3476C18.0175 29.9351 18.6169 29.6178 18.9695 29.1242C19.3221 29.6178 19.9215 29.9351 20.5914 29.9351H21.4729C19.6394 30.6756 17.6296 31.0987 15.5493 31.0987C6.94609 31.0987 0 24.1173 0 15.5493C0 6.94608 6.98135 0 15.5493 0C22.8128 0.0352593 28.9831 5.18311 30.5698 12.0939Z" fill="white"/>
<path d="M18.0527 14.1037V27.9606C18.0527 28.4189 17.6649 28.8068 17.2065 28.8068H15.5846C13.9979 28.8068 12.4818 28.5952 11.0714 28.1369C9.66104 27.6785 8.42696 27.0791 7.33392 26.3386C6.27614 25.5982 5.42993 24.6814 4.83052 23.6942C4.19585 22.6717 4.01956 21.3318 4.01956 21.3318C3.94904 20.8734 3.91379 20.133 3.91379 19.6394V14.1389C3.91379 13.6806 4.30163 13.2927 4.76 13.2927H7.33392C7.79229 13.2927 8.18015 13.6806 8.18015 14.1389V20.4856C8.18015 21.085 8.32119 21.6491 8.60327 22.2133C8.88534 22.7774 9.27319 23.2711 9.76682 23.7294C10.2604 24.1878 10.8598 24.5757 11.565 24.893C12.2702 25.2103 13.0107 25.3866 13.0107 25.3866C13.0812 25.3866 13.1517 25.4219 13.187 25.4219C13.5396 25.4219 13.8216 25.1398 13.8216 24.752V14.1037C13.8216 13.6453 14.2095 13.2574 14.6679 13.2574H17.2418C17.7002 13.2574 18.0527 13.6453 18.0527 14.1037Z" fill="white"/>
<path d="M23.0596 28.7715H20.4504C19.992 28.7715 19.6042 28.3837 19.6042 27.9253V14.1037C19.6042 13.6453 19.992 13.2574 20.4504 13.2574H23.0596C23.5179 13.2574 23.9058 13.6453 23.9058 14.1037V27.9606C23.9058 28.4189 23.5179 28.7715 23.0596 28.7715Z" fill="white"/>
<path d="M35.365 14.1037V15.4788C35.365 15.9371 34.9772 16.325 34.5188 16.325H33.32C32.8616 16.325 32.4738 16.7129 32.4738 17.1712V27.9606C32.4738 28.4189 32.0859 28.8068 31.6276 28.8068H29.0184C28.56 28.8068 28.1722 28.4189 28.1722 27.9606V17.1712C28.1722 16.7129 27.7843 16.325 27.3259 16.325H26.1624C25.704 16.325 25.3161 15.9371 25.3161 15.4788V14.1037C25.3161 13.6453 25.704 13.2574 26.1624 13.2574H34.4836C35.0124 13.2574 35.365 13.6453 35.365 14.1037Z" fill="white"/>
<path d="M51.3022 20.944C51.3022 20.944 51.0907 19.5336 50.4913 18.5111C49.8566 17.4886 49.0104 16.5718 47.9174 15.7961C46.8243 15.0204 45.555 14.421 44.1094 13.9627C42.6637 13.5043 41.1123 13.2927 39.4904 13.2927L37.5511 13.3985C37.0927 13.4338 36.7049 13.8216 36.7049 14.28V27.9606C36.7049 28.4189 37.0927 28.8068 37.5511 28.8068H40.125C40.5834 28.8068 40.9713 28.4189 40.9713 27.9606V26.8675C40.9713 26.4092 41.3591 26.0213 41.8175 26.0213H46.3307C46.7891 26.0213 47.1769 26.4092 47.1769 26.8675V27.9606C47.1769 28.4189 47.5648 28.8068 48.0231 28.8068H50.597C51.0554 28.8068 51.4433 28.4189 51.4433 27.9606V22.6364C51.4433 22.1781 51.3728 21.4024 51.3022 20.944ZM47.1769 22.1428C47.1769 22.6012 46.7891 22.989 46.3307 22.989H41.8175C41.3591 22.989 40.9713 22.6012 40.9713 22.1428V17.3123C40.9713 16.8892 41.2534 16.6071 41.6412 16.6071C41.6765 16.6071 41.747 16.6071 41.7822 16.6071C41.7822 16.6071 42.699 16.7834 43.4394 17.1007C44.2151 17.4181 44.8498 17.8412 45.4139 18.2995C45.9781 18.7932 46.4012 19.3221 46.7185 19.9215C47.0359 20.5209 47.1769 21.1555 47.1769 21.7902V22.1428Z" fill="white"/>
<path d="M62.3737 26.5855V27.9606C62.3737 28.4189 61.9858 28.8068 61.5274 28.8068H53.8409C53.3825 28.8068 52.9947 28.4189 52.9947 27.9606V14.1037C52.9947 13.6453 53.3825 13.2574 53.8409 13.2574H56.4148C56.8732 13.2574 57.2611 13.6453 57.2611 14.1037V24.893C57.2611 25.3514 57.6489 25.7392 58.1073 25.7392H61.5274C61.9858 25.7392 62.3737 26.1271 62.3737 26.5855Z" fill="white"/>
<path d="M17.4181 37.8332V34.1662C17.4181 33.602 17.6649 33.1084 18.1233 32.7206C18.6169 32.3327 19.2163 32.0506 19.992 31.9096C20.7677 31.7686 21.5082 31.7686 22.2839 31.9449C23.0596 32.1212 23.659 32.368 24.0821 32.7558C24.5052 33.1437 24.7168 33.6373 24.7168 34.2367V35.8234C24.611 36.1055 24.4699 36.2817 24.3289 36.3875C24.1526 36.4933 23.8 36.5286 23.2006 36.5286C22.6364 36.5286 22.2134 36.458 22.0018 36.3523C21.755 36.2465 21.6139 36.0702 21.5787 35.7881V34.8714C21.5787 34.6246 21.5082 34.4483 21.4024 34.3425C21.2966 34.2367 21.1556 34.2015 21.0498 34.2015C20.9088 34.2015 20.803 34.2367 20.6619 34.3072C20.5562 34.3777 20.4857 34.554 20.4857 34.8361V41.7117C20.4857 42.0643 20.5562 42.2758 20.6619 42.3463C20.7677 42.4169 20.9088 42.4521 21.0498 42.4521C21.1908 42.4521 21.2966 42.4169 21.4024 42.3111C21.5082 42.2053 21.5787 42.029 21.5787 41.7469V40.8655V39.314C21.5434 39.173 21.4024 39.1025 21.2613 39.0672C21.0498 39.032 20.9087 38.8909 20.803 38.6089C20.7325 38.3268 20.7325 38.08 20.8735 37.7979C20.9793 37.5158 21.1556 37.3748 21.4024 37.41H21.6492C22.3191 37.41 22.8128 37.41 23.1653 37.4453C23.5179 37.4806 23.8705 37.5863 24.1879 37.7626C24.5052 37.9389 24.6815 38.3268 24.752 38.8909V42.4874C24.7873 43.0868 24.5757 43.5804 24.1174 43.9683C23.659 44.3561 23.0596 44.6382 22.2839 44.7792C21.5082 44.9555 20.7325 44.9555 19.992 44.8145C19.2163 44.6735 18.6169 44.3914 18.1233 44.0035C17.6296 43.6157 17.4181 43.122 17.4181 42.5226V37.8332Z" fill="white"/>
<path d="M25.4572 34.0957C25.4219 33.4963 25.6335 33.0027 26.0918 32.6148C26.5502 32.227 27.1496 31.9449 27.9253 31.8039C28.701 31.6276 29.4767 31.6276 30.2172 31.7686C30.9929 31.9096 31.5923 32.1917 32.0859 32.5796C32.5795 32.9674 32.7911 33.4611 32.7558 34.0605V44.1799C32.7206 44.4619 32.6148 44.6382 32.4033 44.7793C32.1917 44.8851 31.8038 44.9556 31.275 44.9556C30.7461 44.9556 30.3582 44.9203 30.1467 44.8145C29.9351 44.7088 29.7941 44.5325 29.7588 44.2504V39.5609H28.6305V44.2504C28.5247 44.5325 28.3132 44.7088 28.0311 44.8498C27.749 44.9556 27.3964 45.0261 26.9381 44.9908C26.4797 44.9908 26.1271 44.9203 25.8803 44.8145C25.6335 44.7088 25.4924 44.5325 25.4572 44.2504V43.1926V34.0957ZM29.7235 37.4806V34.8009C29.7235 34.4483 29.653 34.2368 29.5472 34.1662C29.4415 34.0957 29.3004 34.0605 29.1594 34.0605C29.0184 34.0605 28.9126 34.0957 28.8068 34.2015C28.701 34.272 28.6305 34.4836 28.6305 34.7304V37.5159H29.7235V37.4806Z" fill="white"/>
<path d="M40.7597 44.3561C40.6187 44.5677 40.4776 44.7087 40.3718 44.7793C40.2661 44.8498 39.8782 44.885 39.2788 44.885C38.6794 44.885 38.2915 44.8498 38.1858 44.7793C38.08 44.7087 37.939 44.5677 37.7979 44.3914V34.8009C37.7979 34.4483 37.7274 34.2367 37.6216 34.1662C37.5159 34.0957 37.3748 34.0604 37.2338 34.0604C37.0928 34.0604 36.987 34.0957 36.8812 34.2015C36.7754 34.272 36.7049 34.4835 36.7049 34.7304V37.5158V44.4267C36.4933 44.6382 36.317 44.744 36.1055 44.8498C35.8939 44.9203 35.5413 44.9555 35.0124 44.9555C34.4835 44.9555 34.131 44.885 33.9899 44.8145C33.8489 44.744 33.7079 44.603 33.5316 44.4267V43.1573V34.0604C33.4963 33.461 33.7079 32.9674 34.1662 32.5795C34.6246 32.1917 35.224 31.9449 35.9644 31.8038C36.7401 31.6628 37.3748 31.6275 37.9742 31.6981C38.5384 31.7686 39.032 31.9096 39.3846 32.1564C39.7724 31.9096 40.2661 31.7686 40.8302 31.6981C41.3944 31.6275 42.029 31.6628 42.699 31.7686C43.3689 31.8744 43.933 32.1564 44.4267 32.5443C44.9203 32.9321 45.1319 33.4258 45.0966 34.0252V44.3561C44.9556 44.5677 44.8145 44.7087 44.7087 44.7793C44.603 44.8498 44.2151 44.885 43.6157 44.885C43.0163 44.885 42.6285 44.8498 42.5227 44.7793C42.4169 44.7087 42.2758 44.5677 42.1348 44.3914V34.8009C42.1348 34.4483 42.0643 34.2367 41.9585 34.1662C41.8527 34.0957 41.7117 34.0604 41.5707 34.0604C41.4296 34.0604 41.3239 34.0957 41.2181 34.2015C41.1123 34.272 41.0065 34.4835 40.8655 34.7656V44.3561H40.7597Z" fill="white"/>
<path d="M45.7665 37.4806V34.0957C45.7313 33.4963 45.9428 33.0027 46.4012 32.6148C46.8596 32.227 47.459 31.9449 48.2347 31.8039C49.0104 31.6276 49.7861 31.6276 50.5265 31.7686C51.3022 31.9096 51.9017 32.1917 52.3953 32.5796C52.8889 32.9674 53.1005 33.4611 53.0652 34.0605V35.1888C53.0299 35.4708 52.8537 35.6471 52.6068 35.7529C52.36 35.8587 51.9722 35.8939 51.5138 35.8939C51.0202 35.8939 50.7028 35.8234 50.4913 35.7176C50.2797 35.6119 50.1387 35.4003 50.0682 35.1535V34.7304C50.0682 34.3778 49.9976 34.1662 49.8919 34.0957C49.7861 34.0252 49.6451 33.9899 49.504 33.9899C49.363 33.9899 49.2572 34.0252 49.1514 34.0957C49.0457 34.1662 48.9751 34.3425 48.9751 34.6246V36.7402C48.9751 37.1633 49.222 37.4101 49.6803 37.4101H51.7254C52.2542 37.4454 52.5716 37.5159 52.7479 37.6569C52.9242 37.7979 52.9947 38.08 52.9594 38.5031C52.9242 38.9262 52.8536 39.1731 52.7126 39.2788C52.5716 39.3846 52.2543 39.4551 51.6901 39.4551H49.6803C49.1867 39.4551 48.9399 39.6667 48.9399 40.0545V41.7117C48.9399 41.9938 49.0104 42.1701 49.1162 42.2759C49.2219 42.3817 49.363 42.4169 49.4688 42.4169C49.6098 42.4169 49.7156 42.3816 49.8566 42.3111C49.9624 42.2406 50.0329 42.0291 50.0329 41.6765V41.2534C50.1034 41.0065 50.2445 40.795 50.4208 40.6892C50.5971 40.5834 50.9496 40.5482 51.4785 40.5482C52.0074 40.5482 52.3953 40.5834 52.6068 40.6892C52.8537 40.795 52.9947 40.9713 53.03 41.2534V42.3816C53.0652 42.9811 52.8536 43.4747 52.4658 43.8978C52.0779 44.3209 51.4433 44.603 50.6676 44.7793C49.8566 44.9556 49.0456 44.9556 48.2347 44.744C47.4237 44.5677 46.7891 44.2504 46.3659 43.8625C45.9428 43.4747 45.7313 42.9811 45.7665 42.3816V37.4806Z" fill="white"/>
<path d="M60.9985 42.4169C61.0338 43.0163 60.8222 43.5099 60.3639 43.8978C59.9055 44.2856 59.3061 44.5677 58.5304 44.7088C57.7547 44.8851 56.979 44.8851 56.2385 44.744C55.4628 44.603 54.8634 44.3209 54.3698 43.9331C53.8762 43.5452 53.6646 43.0516 53.6999 42.4522V41.3239C53.7351 41.0418 53.9114 40.8655 54.1582 40.7597C54.4051 40.6539 54.7929 40.6187 55.2865 40.6187C55.7802 40.6187 56.1328 40.6892 56.3091 40.795C56.4853 40.9008 56.6264 41.0771 56.6969 41.3239V41.747C56.6969 42.0996 56.7674 42.3111 56.8732 42.3816C56.979 42.4522 57.12 42.4874 57.2611 42.4874C57.4021 42.4874 57.5079 42.4522 57.6136 42.3464C57.7194 42.2759 57.7899 42.0643 57.7899 41.8175V40.1603C57.7899 39.7725 57.4726 39.5609 56.8027 39.5609H54.8634C54.0877 39.5609 53.6646 39.2436 53.6646 38.5736V34.0957C53.6293 33.4963 53.8409 33.0027 54.2993 32.6148C54.7576 32.227 55.3571 31.9449 56.1328 31.8039C56.9085 31.6276 57.6842 31.6276 58.4246 31.7686C59.2003 31.9096 59.7997 32.1917 60.2933 32.5796C60.787 32.9674 60.9985 33.4611 60.9633 34.0605V35.1888C60.928 35.4708 60.7517 35.6471 60.5049 35.7529C60.2581 35.8587 59.8702 35.8939 59.3766 35.8939C58.883 35.8939 58.5304 35.8234 58.3541 35.7176C58.1778 35.6119 58.0368 35.4356 57.9662 35.1888V34.7656C57.9662 34.4131 57.8957 34.2015 57.7899 34.131C57.6842 34.0605 57.5431 34.0252 57.4021 34.0252C57.261 34.0252 57.1553 34.0605 57.0495 34.1662C56.9437 34.2368 56.8732 34.4483 56.8732 34.6951V36.8107C56.8732 37.2338 57.12 37.4806 57.5784 37.4806H59.6234C60.5402 37.4806 60.9985 37.8332 61.0338 38.5384V42.4169H60.9985Z" fill="white"/>
<defs>
<radialGradient id="paint0_radial_330_1012" cx="0" cy="0" r="1" gradientUnits="userSpaceOnUse" gradientTransform="translate(21.649 24.7368) scale(6.03629 6.03631)">
<stop offset="0.00549451" stop-color="#F8F099"/>
<stop offset="0.3516" stop-color="#EDE43D"/>
<stop offset="0.989" stop-color="#F6CA38"/>
</radialGradient>
<radialGradient id="paint1_radial_330_1012" cx="0" cy="0" r="1" gradientUnits="userSpaceOnUse" gradientTransform="translate(10.5836 24.7313) scale(11.0623 11.0623)">
<stop offset="0.00549451" stop-color="#F8F099"/>
<stop offset="0.3516" stop-color="#EDE43D"/>
<stop offset="0.989" stop-color="#F6CA38"/>
</radialGradient>
</defs>
</svg>
