<svg width="137" height="98" viewBox="0 0 137 98" fill="none" xmlns="http://www.w3.org/2000/svg">
<path d="M52.5863 30.7151V60.7409C52.5863 61.7367 51.7438 62.5792 50.748 62.5792H45.0799C44.0841 62.5792 43.2416 61.7367 43.2416 60.7409V30.7151C43.2416 29.7194 44.0841 28.8768 45.0799 28.8768H50.748C51.7438 28.8768 52.5863 29.6428 52.5863 30.7151Z" fill="url(#paint0_radial_71_1959)"/>
<path d="M57.5651 37.9918H59.4034V56.2983C58.1013 57.7537 56.7225 59.0558 55.1906 60.2813V37.3024C55.8034 37.762 56.6459 37.9918 57.5651 37.9918Z" fill="white"/>
<path d="M18.3478 30.6385V44.4259C18.3478 45.728 18.6541 46.9536 19.2669 48.1791C19.8797 49.4047 20.7223 50.477 21.7946 51.4727C22.867 52.4685 24.1691 53.3111 25.701 54.0004C27.233 54.6898 28.8415 55.0728 28.8415 55.0728C28.9946 55.0728 29.1478 55.1494 29.2244 55.1494C29.9904 55.1494 30.6032 54.5366 30.6032 53.694V30.5619C30.6032 29.5662 31.4457 28.7236 32.4415 28.7236H38.033C39.0288 28.7236 39.8714 29.5662 39.8714 30.5619V60.7409C39.8714 61.7367 39.0288 62.5792 38.033 62.5792H34.5096C31.0628 62.5792 27.7691 62.1196 24.7053 61.1239C21.6414 60.1281 18.9605 58.826 16.586 57.2175C14.2881 55.609 12.4499 53.6174 11.1477 51.4727C9.76898 49.2515 9.38598 46.3408 9.38598 46.3408C9.23279 45.345 9.1562 43.7365 9.1562 42.6642V30.7151C9.1562 29.7194 9.99876 28.8768 10.9945 28.8768H16.586C17.5818 28.8002 18.3478 29.6428 18.3478 30.6385Z" fill="url(#paint1_radial_71_1959)"/>
<path d="M67.063 26.2726H57.5651C56.1863 26.2726 54.9608 26.8853 54.1182 27.8811C53.2757 26.8853 52.1267 26.2726 50.748 26.2726H45.0799C43.6246 26.2726 42.399 26.9619 41.5564 28.0343C40.7905 26.9619 39.4883 26.196 38.033 26.196H32.4415C29.9904 26.196 28.0755 28.1875 28.0755 30.5619V52.1621C27.6925 52.0089 27.2329 51.8557 26.85 51.626C25.5478 51.0132 24.4755 50.3238 23.6329 49.4813C22.7903 48.7153 22.101 47.8727 21.6414 46.9536C21.1818 46.111 21.0286 45.2685 21.0286 44.3493V30.5619C21.0286 28.1109 19.0371 26.196 16.6626 26.196H11.0711C8.62002 26.196 6.7051 28.1875 6.7051 30.5619V42.511C6.7051 43.6599 6.85829 45.4216 7.01148 46.494C7.08808 46.877 7.54767 50.0174 9.15619 52.6217C10.6881 55.0728 12.7562 57.2941 15.3605 59.1324C17.8882 60.8941 20.7988 62.3494 24.1691 63.4218C27.4627 64.4941 31.0628 65.0303 34.816 65.0303H38.3394C39.7947 65.0303 41.0969 64.341 41.8628 63.2686C42.6288 64.341 43.9309 65.0303 45.3863 65.0303H47.3012C43.3182 66.6388 38.9522 67.558 34.433 67.558C15.7435 67.558 0.653992 52.3919 0.653992 33.779C0.653992 15.0895 15.8201 0 34.433 0C50.1353 0.0765964 63.6162 11.2597 67.063 26.2726Z" fill="white"/>
<path d="M39.8714 30.6385V60.7409C39.8714 61.7366 39.0288 62.5792 38.033 62.5792H34.5096C31.0628 62.5792 27.7691 62.1196 24.7053 61.1238C21.6414 60.1281 18.9605 58.8259 16.586 57.2174C14.2881 55.6089 12.4499 53.6174 11.1477 51.4727C9.76898 49.2514 9.38598 46.3407 9.38598 46.3407C9.23279 45.345 9.1562 43.7365 9.1562 42.6641V30.7151C9.1562 29.7193 9.99876 28.8768 10.9945 28.8768H16.586C17.5818 28.8768 18.4244 29.7193 18.4244 30.7151V44.5024C18.4244 45.8046 18.7307 47.0301 19.3435 48.2556C19.9563 49.4812 20.7989 50.5535 21.8712 51.5493C22.9436 52.545 24.2457 53.3876 25.7776 54.077C27.3095 54.7663 28.9181 55.1493 28.9181 55.1493C29.0713 55.1493 29.2244 55.2259 29.301 55.2259C30.067 55.2259 30.6798 54.6131 30.6798 53.7706V30.6385C30.6798 29.6427 31.5223 28.8002 32.5181 28.8002H38.1096C39.0288 28.8002 39.8714 29.6427 39.8714 30.6385Z" fill="white"/>
<path d="M50.748 62.5026H45.0799C44.0841 62.5026 43.2416 61.66 43.2416 60.6642V30.6385C43.2416 29.6427 44.0841 28.8002 45.0799 28.8002H50.748C51.7438 28.8002 52.5863 29.6427 52.5863 30.6385V60.7409C52.5863 61.7366 51.7438 62.5026 50.748 62.5026Z" fill="white"/>
<path d="M77.4801 30.6385V33.6257C77.4801 34.6215 76.6376 35.4641 75.6418 35.4641H73.0376C72.0418 35.4641 71.1993 36.3066 71.1993 37.3024V60.7409C71.1993 61.7366 70.3567 62.5792 69.3609 62.5792H63.6928C62.697 62.5792 61.8545 61.7366 61.8545 60.7409V37.3024C61.8545 36.3066 61.0119 35.4641 60.0162 35.4641H57.4885C56.4928 35.4641 55.6502 34.6215 55.6502 33.6257V30.6385C55.6502 29.6427 56.4928 28.8002 57.4885 28.8002H75.5652C76.6376 28.8002 77.4801 29.6427 77.4801 30.6385Z" fill="white"/>
<path d="M112.102 45.4982C112.102 45.4982 111.642 42.4343 110.34 40.213C108.961 37.9917 107.123 36.0002 104.748 34.3151C102.374 32.63 99.6165 31.3279 96.476 30.3321C93.3356 29.3363 89.9653 28.8768 86.4419 28.8768L82.2291 29.1066C81.2334 29.1832 80.3908 30.0257 80.3908 31.0215V60.7409C80.3908 61.7366 81.2334 62.5792 82.2291 62.5792H87.8206C88.8164 62.5792 89.659 61.7366 89.659 60.7409V58.3664C89.659 57.3706 90.5015 56.5281 91.4973 56.5281H101.302C102.297 56.5281 103.14 57.3706 103.14 58.3664V60.7409C103.14 61.7366 103.982 62.5792 104.978 62.5792H110.57C111.566 62.5792 112.408 61.7366 112.408 60.7409V49.1748C112.408 48.179 112.255 46.4939 112.102 45.4982ZM103.14 48.1025C103.14 49.0982 102.297 49.9408 101.302 49.9408H91.4973C90.5015 49.9408 89.659 49.0982 89.659 48.1025V37.6088C89.659 36.6896 90.2717 36.0768 91.1143 36.0768C91.1909 36.0768 91.3441 36.0768 91.4207 36.0768C91.4207 36.0768 93.4122 36.4598 95.0207 37.1492C96.7058 37.8385 98.0846 38.7577 99.3101 39.7535C100.536 40.8258 101.455 41.9747 102.144 43.2769C102.834 44.579 103.14 45.9578 103.14 47.3365V48.1025Z" fill="white"/>
<path d="M136.076 57.7536V60.7409C136.076 61.7366 135.234 62.5792 134.238 62.5792H117.54C116.544 62.5792 115.702 61.7366 115.702 60.7409V30.6385C115.702 29.6427 116.544 28.8002 117.54 28.8002H123.132C124.127 28.8002 124.97 29.6427 124.97 30.6385V54.077C124.97 55.0727 125.812 55.9153 126.808 55.9153H134.238C135.31 55.9153 136.076 56.7578 136.076 57.7536Z" fill="white"/>
<path d="M38.4926 82.1878V74.2218C38.4926 72.9963 39.0288 71.9239 40.0245 71.0814C41.0969 70.2388 42.399 69.626 44.0841 69.3196C45.7693 69.0133 47.3778 69.0133 49.0629 69.3962C50.748 69.7792 52.0501 70.3154 52.9693 71.158C53.8884 72.0005 54.348 73.0729 54.348 74.375V77.8218C54.1183 78.4346 53.8119 78.8176 53.5055 79.0474C53.1225 79.2772 52.3565 79.3538 51.0544 79.3538C49.8288 79.3538 48.9097 79.2006 48.4501 78.9708C47.9139 78.741 47.6076 78.358 47.531 77.7452V75.7537C47.531 75.2176 47.3778 74.8346 47.148 74.6048C46.9182 74.375 46.6118 74.2984 46.382 74.2984C46.0756 74.2984 45.8458 74.375 45.5395 74.5282C45.3097 74.6814 45.1565 75.0644 45.1565 75.6771V90.6134C45.1565 91.3794 45.3097 91.839 45.5395 91.9922C45.7692 92.1454 46.0756 92.222 46.382 92.222C46.6884 92.222 46.9182 92.1454 47.148 91.9156C47.3778 91.6858 47.531 91.3028 47.531 90.69V88.7751V85.4049C47.4544 85.0985 47.148 84.9453 46.8416 84.8687C46.382 84.7921 46.0756 84.4857 45.8458 83.873C45.6926 83.2602 45.6927 82.724 45.999 82.1112C46.2288 81.4985 46.6118 81.1921 47.148 81.2687H47.6841C49.1395 81.2687 50.2118 81.2687 50.9778 81.3453C51.7438 81.4219 52.5097 81.6517 53.1991 82.0346C53.8885 82.4176 54.2714 83.2602 54.4246 84.4857V92.2986C54.5012 93.6007 54.0416 94.673 53.0459 95.5156C52.0501 96.3582 50.748 96.9709 49.0629 97.2773C47.3778 97.6603 45.6927 97.6603 44.0841 97.3539C42.399 97.0475 41.0969 96.4348 40.0245 95.5922C38.9522 94.7496 38.4926 93.6773 38.4926 92.3752V82.1878Z" fill="white"/>
<path d="M55.9566 74.0687C55.88 72.7665 56.3396 71.6942 57.3353 70.8516C58.3311 70.0091 59.6332 69.3963 61.3183 69.0899C63.0035 68.7069 64.6886 68.7069 66.2971 69.0133C67.9822 69.3197 69.2844 69.9325 70.3567 70.775C71.4291 71.6176 71.8886 72.6899 71.812 73.9921V95.9752C71.7354 96.588 71.5056 96.971 71.0461 97.2774C70.5865 97.5072 69.7439 97.6603 68.595 97.6603C67.4461 97.6603 66.6035 97.5838 66.1439 97.354C65.6843 97.1242 65.3779 96.7412 65.3013 96.1284V85.9411H62.9269V96.1284C62.6971 96.7412 62.2375 97.1242 61.6247 97.4306C61.012 97.6603 60.246 97.8135 59.2502 97.7369C58.2545 97.7369 57.4885 97.5838 56.9523 97.354C56.4162 97.1242 56.1098 96.7412 56.0332 96.1284V93.8305V74.0687H55.9566ZM65.2247 81.4219V75.6006C65.2247 74.8346 65.0716 74.3751 64.8418 74.2219C64.612 74.0687 64.3056 73.9921 63.9992 73.9921C63.6928 73.9921 63.463 74.0687 63.2333 74.2985C63.0035 74.4517 62.8503 74.9112 62.8503 75.4474V81.4985H65.2247V81.4219Z" fill="white"/>
<path d="M89.1994 96.3582C88.893 96.8178 88.5866 97.1242 88.3568 97.2774C88.1271 97.4306 87.2845 97.5072 85.9824 97.5072C84.6802 97.5072 83.8377 97.4306 83.6079 97.2774C83.3781 97.1242 83.0717 96.8178 82.7653 96.4348V75.6006C82.7653 74.8347 82.6121 74.3751 82.3823 74.2219C82.1526 74.0687 81.8462 73.9921 81.5398 73.9921C81.2334 73.9921 81.0036 74.0687 80.7738 74.2985C80.544 74.4517 80.3908 74.9113 80.3908 75.4474V81.4986V96.5114C79.9313 96.971 79.5483 97.2008 79.0887 97.4306C78.6291 97.5838 77.8631 97.6604 76.7142 97.6604C75.5652 97.6604 74.7993 97.5072 74.4929 97.354C74.1865 97.2008 73.8801 96.8944 73.4972 96.5114V93.754V73.9921C73.4206 72.69 73.8801 71.6176 74.8759 70.7751C75.8716 69.9325 77.1738 69.3963 78.7823 69.0899C80.4674 68.7836 81.8462 68.707 83.1483 68.8602C84.3738 69.0133 85.4462 69.3197 86.2122 69.8559C87.0547 69.3197 88.127 69.0133 89.3526 68.8602C90.5781 68.707 91.9569 68.7836 93.4122 69.0133C94.8675 69.2431 96.0931 69.8559 97.1654 70.6985C98.2378 71.541 98.6974 72.6134 98.6208 73.9155V96.3582C98.3144 96.8178 98.008 97.1242 97.7782 97.2774C97.5484 97.4306 96.7059 97.5072 95.4037 97.5072C94.1016 97.5072 93.259 97.4306 93.0292 97.2774C92.7994 97.1242 92.4931 96.8178 92.1867 96.4348V75.6006C92.1867 74.8347 92.0335 74.3751 91.8037 74.2219C91.5739 74.0687 91.2675 73.9921 90.9611 73.9921C90.6547 73.9921 90.4249 74.0687 90.1952 74.2985C89.9654 74.4517 89.7356 74.9113 89.4292 75.524V96.3582H89.1994Z" fill="white"/>
<path d="M100.076 81.4219V74.0687C99.9995 72.7665 100.459 71.6942 101.455 70.8516C102.451 70.0091 103.753 69.3963 105.438 69.0899C107.123 68.7069 108.808 68.7069 110.417 69.0133C112.102 69.3197 113.404 69.9325 114.476 70.775C115.549 71.6176 116.008 72.6899 115.932 73.9921V76.4432C115.855 77.0559 115.472 77.4389 114.936 77.6687C114.4 77.8985 113.557 77.9751 112.561 77.9751C111.489 77.9751 110.8 77.8219 110.34 77.5921C109.88 77.3623 109.574 76.9027 109.421 76.3666V75.4474C109.421 74.6814 109.268 74.2219 109.038 74.0687C108.808 73.9155 108.502 73.8389 108.195 73.8389C107.889 73.8389 107.659 73.9155 107.429 74.0687C107.2 74.2219 107.046 74.6048 107.046 75.2176V79.8134C107.046 80.7326 107.583 81.2687 108.578 81.2687H113.021C114.17 81.3453 114.859 81.4985 115.242 81.8049C115.625 82.1113 115.778 82.7241 115.702 83.6432C115.625 84.5624 115.472 85.0986 115.166 85.3283C114.859 85.5581 114.17 85.7113 112.944 85.7113H108.578C107.506 85.7113 106.97 86.1709 106.97 87.0135V90.6135C106.97 91.2263 107.123 91.6092 107.353 91.839C107.583 92.0688 107.889 92.1454 108.119 92.1454C108.425 92.1454 108.655 92.0688 108.961 91.9156C109.191 91.7624 109.344 91.3028 109.344 90.5369V89.6177C109.497 89.0816 109.804 88.622 110.187 88.3922C110.57 88.1624 111.336 88.0858 112.485 88.0858C113.634 88.0858 114.476 88.1624 114.936 88.3922C115.472 88.622 115.778 89.005 115.855 89.6177V92.0688C115.932 93.371 115.472 94.4433 114.629 95.3625C113.787 96.2816 112.408 96.8944 110.723 97.2774C108.961 97.6603 107.2 97.6604 105.438 97.2008C103.676 96.8178 102.297 96.1284 101.378 95.2859C100.459 94.4433 99.9995 93.371 100.076 92.0688V81.4219Z" fill="white"/>
<path d="M133.166 92.1454C133.242 93.4475 132.783 94.5199 131.787 95.3625C130.791 96.205 129.489 96.8178 127.804 97.1242C126.119 97.5072 124.434 97.5072 122.825 97.2008C121.14 96.8944 119.838 96.2816 118.766 95.4391C117.693 94.5965 117.234 93.5242 117.31 92.222V89.7709C117.387 89.1581 117.77 88.7752 118.306 88.5454C118.842 88.3156 119.685 88.239 120.757 88.239C121.829 88.239 122.595 88.3922 122.978 88.622C123.361 88.8518 123.668 89.2347 123.821 89.7709V90.6901C123.821 91.456 123.974 91.9156 124.204 92.0688C124.434 92.222 124.74 92.2986 125.046 92.2986C125.353 92.2986 125.583 92.222 125.812 91.9922C126.042 91.839 126.195 91.3794 126.195 90.8433V87.2432C126.195 86.4007 125.506 85.9411 124.051 85.9411H119.838C118.153 85.9411 117.234 85.2517 117.234 83.7964V74.0687C117.157 72.7665 117.617 71.6942 118.612 70.8516C119.608 70.0091 120.91 69.3963 122.595 69.0899C124.281 68.7069 125.966 68.7069 127.574 69.0133C129.259 69.3197 130.561 69.9325 131.634 70.775C132.706 71.6176 133.166 72.6899 133.089 73.9921V76.4432C133.013 77.0559 132.63 77.4389 132.093 77.6687C131.557 77.8985 130.715 77.9751 129.642 77.9751C128.57 77.9751 127.804 77.8219 127.421 77.5921C127.038 77.3623 126.732 76.9793 126.578 76.4432V75.524C126.578 74.758 126.425 74.2985 126.195 74.1453C125.966 73.9921 125.659 73.9155 125.353 73.9155C125.046 73.9155 124.817 73.9921 124.587 74.2219C124.357 74.3751 124.204 74.8346 124.204 75.3708V79.9666C124.204 80.8858 124.74 81.4219 125.736 81.4219H130.178C132.17 81.4219 133.166 82.1879 133.242 83.7198V92.1454H133.166Z" fill="white"/>
<defs>
<radialGradient id="paint0_radial_71_1959" cx="0" cy="0" r="1" gradientUnits="userSpaceOnUse" gradientTransform="translate(47.6711 53.7377) scale(13.1131 13.1131)">
<stop offset="0.00549451" stop-color="#F8F099"/>
<stop offset="0.3516" stop-color="#EDE43D"/>
<stop offset="0.989" stop-color="#F6CA38"/>
</radialGradient>
<radialGradient id="paint1_radial_71_1959" cx="0" cy="0" r="1" gradientUnits="userSpaceOnUse" gradientTransform="translate(23.6331 53.7258) scale(24.0315 24.0315)">
<stop offset="0.00549451" stop-color="#F8F099"/>
<stop offset="0.3516" stop-color="#EDE43D"/>
<stop offset="0.989" stop-color="#F6CA38"/>
</radialGradient>
</defs>
</svg>
