<svg width="78" height="22" viewBox="0 0 78 22" fill="none" xmlns="http://www.w3.org/2000/svg">
<path fill-rule="evenodd" clip-rule="evenodd" d="M68.464 2.02403C68.7837 2.02675 69.269 2.18557 69.9141 2.50105C70.8192 2.88777 71.4699 3.08041 71.8648 3.08041C73.0312 3.08041 73.9557 2.41884 74.6411 1.09554L73.2842 0C72.8032 0.743872 72.3597 1.11711 71.9649 1.11711C71.7493 1.11711 71.2724 0.933735 70.5356 0.568637C69.8001 0.211483 69.1592 0.0322904 68.6031 0.0322904C68.3627 0.0336273 68.1345 0.0590735 67.9302 0.115989C67.7284 0.162973 67.5284 0.248102 67.3352 0.371864C67.1433 0.491806 66.9556 0.644202 66.7693 0.839433C66.5872 1.02546 66.3925 1.25455 66.1923 1.52942L65.8848 1.95118L67.2822 3.10069C67.6798 2.38516 68.0734 2.02403 68.464 2.02403ZM68.0231 14.9617L70.0725 10.7642L72.1163 14.9617H68.0231ZM70.502 6.41832H69.661L62.0658 21.9973H64.5863L66.9763 17.1071H73.1241L75.535 21.9973H78L70.502 6.41832ZM42.6558 6.41832H40.391V22H48.559V19.8575H42.6558V6.41832ZM54.3092 21.9973H56.5782V6.41832H54.3092V21.9973ZM24.6751 22H34.1347V19.8358H26.9384V14.6977H34.1347V12.5362H26.9384V8.58119H34.1972V6.41832H24.6751V22ZM15.061 6.41832L9.1078 18.1743L3.09755 6.41832H2.30786L0 21.9973H2.22451L3.61195 12.1172L8.67411 21.9973H9.52213L14.5175 12.2006L15.9162 22H18.1615L15.8507 6.41832H15.061Z" fill="#E5E5E5"/>
</svg>
