<svg width="68" height="78" viewBox="0 0 68 78" fill="none" xmlns="http://www.w3.org/2000/svg">
<g clip-path="url(#clip0_13_587)">
<path d="M52.7065 41.2483C52.3939 41.2483 52.1594 41.3782 52.0292 41.5862C51.9249 41.3782 51.6644 41.2483 51.3518 41.2483H51.2475V42.8598H51.456V41.4562C51.7426 41.4562 51.9249 41.6382 51.9249 41.976V42.3659H52.1073V41.976C52.1073 41.6642 52.3157 41.4562 52.5763 41.4562V42.8598H52.7847V41.2483H52.7065ZM49.8667 41.4302H50.2836V42.8598H50.4659V41.4302H50.8828V41.2483H49.8667V41.4302Z" fill="#D7C378"/>
<path d="M36.3968 37.2196C35.8236 37.0117 34.8336 36.9857 33.9999 37.6615C33.1662 36.9857 32.2022 37.0117 31.6029 37.2196C31.134 37.4015 30.7432 37.5315 30.0137 37.5315C30.7432 39.013 32.2543 40.0527 33.9999 40.0527C35.7715 40.0527 37.2826 39.039 37.9861 37.5315C37.2566 37.5315 36.8918 37.4015 36.3968 37.2196Z" fill="#D7C378"/>
<path d="M33.9999 0C21.9631 0 12.2451 9.72076 12.2451 21.7028C12.2451 31.9693 19.4099 40.5985 29.0237 42.8337C21.3899 38.7791 18.2896 29.4222 21.9371 21.5728C22.5103 24.6658 24.5685 27.4209 27.5907 28.8504C23.6566 19.6754 26.5486 8.86305 34.7034 2.88504C33.088 8.34322 35.5371 13.3336 40.826 17.1023C46.8704 21.4169 47.1049 30.2279 41.7899 34.9843C43.9003 34.4905 45.8804 33.3469 47.3133 31.5535C46.4014 36.2059 43.4834 40.4165 39.0022 42.8077C48.616 40.5465 55.7808 31.9693 55.7808 21.6768C55.7547 9.72076 46.0367 0 33.9999 0Z" fill="#D7C378"/>
<path d="M63.649 48.8117C63.649 48.8117 63.649 50.2152 63.649 50.943C63.649 51.6707 63.8314 52.3725 64.4307 52.8403C64.7954 53.1262 65.2383 53.3082 65.6812 53.4381C66.072 53.5681 66.4889 53.75 66.7494 54.0619C66.9579 54.3218 66.9839 54.6337 66.9839 54.9456V55.5694H68V50.6051H66.9839V52.8923C66.4889 52.5544 65.8636 52.4245 65.3425 52.1126C64.8736 51.8267 64.7433 51.3848 64.7433 50.865C64.7433 50.3711 64.7433 48.7857 64.7433 48.7857L63.649 48.8117ZM58.6728 52.0346C57.9693 52.9183 57.2659 53.776 56.5364 54.6857C56.2759 54.9976 56.0414 55.3095 55.7808 55.6474H60.5487V54.6597H57.813L59.5326 52.5284C59.7671 52.2425 60.0015 51.9306 60.1318 51.5927C60.2881 51.2548 60.3402 50.891 60.3142 50.5011C60.236 49.7993 59.741 49.2275 59.1157 48.9416C58.4644 48.6297 57.6567 48.6557 57.0314 48.9936C56.4061 49.3315 55.9372 49.9553 55.9111 50.657C55.859 51.3848 56.2238 52.0346 56.7969 52.5024L57.3701 51.7487C57.1617 51.5408 56.9793 51.2808 56.9272 51.0209C56.8751 50.735 56.9272 50.4491 57.1096 50.2152C57.4483 49.7733 58.1257 49.6174 58.6467 49.8773C58.9073 50.0073 59.0897 50.2152 59.2199 50.4751C59.2981 50.761 59.272 51.0729 59.1418 51.3328C59.0375 51.5667 58.8291 51.7747 58.6728 52.0346ZM47.7824 50.2152C48.6161 49.5914 49.8146 49.5654 50.6483 50.1632C51.6123 50.839 52.0031 52.1386 51.5341 53.2302C51.1172 54.1919 50.1533 54.8157 49.1111 54.7377C48.095 54.6597 47.2092 53.932 46.8966 52.9703C46.5839 51.9566 46.9487 50.839 47.7824 50.2152ZM48.3295 55.5954C49.7625 55.9593 51.3257 55.4135 52.1594 54.2179C53.0192 52.9963 52.9931 51.3068 52.1073 50.1372C52.0031 50.0073 51.8988 49.8773 51.7686 49.7474C50.7004 48.7337 49.059 48.4478 47.7303 49.0456C46.3755 49.6694 45.5678 51.0989 45.6981 52.5804C45.8544 54.0099 46.9487 55.2575 48.3295 55.5954ZM40.9563 52.0346L38.8199 54.6857C38.5594 54.9976 38.3249 55.3095 38.0644 55.6474H42.8322V54.6597H40.0965L41.8161 52.5284C42.0506 52.2425 42.2851 51.9306 42.4153 51.5927C42.5716 51.2548 42.6238 50.891 42.5977 50.5011C42.5195 49.7993 42.0245 49.2275 41.3992 48.9416C40.7479 48.6297 39.9402 48.6557 39.3149 48.9936C38.6897 49.3315 38.2207 49.9553 38.1946 50.657C38.1425 51.3848 38.5073 52.0346 39.0805 52.5024L39.6536 51.7487C39.4452 51.5408 39.2628 51.2808 39.2107 51.0209C39.1586 50.735 39.2107 50.4491 39.3931 50.2152C39.7318 49.7733 40.4092 49.6174 40.9303 49.8773C41.1908 50.0073 41.3992 50.2152 41.5034 50.4751C41.5816 50.761 41.5556 51.0729 41.4513 51.3328C41.3471 51.5667 41.1387 51.7747 40.9563 52.0346ZM30.1441 54.7377C29.5709 54.6337 29.1801 54.1659 29.1801 53.5941H28.1379C28.1379 54.1399 28.3203 54.6597 28.7111 55.0756C29.1019 55.4654 29.649 55.6734 30.1962 55.7254C30.7694 55.7773 31.3686 55.6474 31.8115 55.3095C32.2544 54.9976 32.541 54.5298 32.5931 53.9839C32.6452 53.3601 32.4628 52.7364 31.9678 52.3465C31.6031 52.0346 31.1341 51.8786 30.6912 51.7227C30.2743 51.5667 29.8054 51.4108 29.4927 51.0729C29.2061 50.735 29.2843 50.2412 29.5448 49.9553C29.8575 49.6434 30.3264 49.5914 30.6912 49.7214C31.1341 49.8513 31.3946 50.2672 31.3946 50.709H32.4368C32.4368 50.2152 32.2805 49.7214 31.9418 49.3575C31.6291 49.0196 31.1602 48.7857 30.6912 48.7337C30.1962 48.6817 29.6751 48.7337 29.2322 48.9936C28.8153 49.2275 28.4766 49.5914 28.3203 50.0593C28.164 50.5011 28.2161 51.0209 28.4245 51.4368C28.6851 51.8786 29.128 52.1386 29.5969 52.3465C30.092 52.5544 30.6912 52.6844 31.1341 53.0223C31.3165 53.1522 31.4467 53.3342 31.5249 53.5421C31.577 53.75 31.577 54.0099 31.4728 54.1919C31.2383 54.6857 30.6391 54.8417 30.1441 54.7377ZM23.8912 48.8117V49.7733C24.2299 49.6954 24.5946 49.6434 24.9594 49.6174V48.8117H23.8912ZM23.8912 50.3711V55.6214H24.9594V50.2152C24.5686 50.2152 24.2299 50.2672 23.8912 50.3711ZM19.0192 51.8267C18.7586 52.1386 18.3678 52.2945 18.0291 52.4764C17.6123 52.6584 17.1954 52.8923 16.8307 53.2042V49.7993H17.8728C18.5502 49.7993 19.2276 50.1372 19.3057 50.865C19.3318 51.2289 19.2536 51.5667 19.0192 51.8267ZM19.9831 52.1905C20.1916 51.9046 20.3218 51.5927 20.3739 51.2289C20.4521 50.5011 20.2176 49.7733 19.5923 49.3315C18.7586 48.7337 17.7425 48.8117 16.7785 48.8117H15.7885V55.5954H16.8567C16.8567 55.3875 16.8567 55.1795 16.8567 54.9976C16.8828 54.5298 17.0651 54.1139 17.4559 53.88C17.8467 53.6461 18.3678 53.6201 18.7847 53.802C19.2015 53.9839 19.4621 54.3738 19.5142 54.8157C19.5663 55.0756 19.5402 55.3355 19.5402 55.5954H20.5824C20.5824 55.2315 20.6084 54.8417 20.5303 54.4778C20.4 53.88 20.0092 53.3861 19.4621 53.0742C19.3318 52.9963 19.2015 52.9703 19.0713 52.9183C19.41 52.7364 19.7487 52.5284 19.9831 52.1905ZM11.2291 51.9826V53.1262C11.2031 53.1002 11.177 53.0742 11.177 53.0483C10.5517 52.4245 9.58774 52.2165 8.75402 52.3465V51.2548C8.75402 51.0469 8.75402 50.839 8.80613 50.657C8.91035 50.2672 9.19694 49.9553 9.56169 49.8253C9.95249 49.6954 10.3954 49.7474 10.7341 50.0073C11.0467 50.2412 11.2291 50.6311 11.2291 51.0469C11.2291 51.3588 11.2291 51.6447 11.2291 51.9826ZM12.2713 55.5954V51.0469C12.2713 50.2152 11.9326 49.4355 11.177 49.0196C10.2651 48.4998 8.9364 48.6557 8.23295 49.4614C7.89425 49.8513 7.71188 50.3452 7.68582 50.839C7.68582 50.9689 7.68582 55.5954 7.68582 55.5954H8.72797V53.3342C9.3272 53.2562 10.0307 53.3082 10.5517 53.672C11.0207 54.0099 11.2291 54.5298 11.2291 55.1016C11.2291 55.2575 11.2291 55.5694 11.2291 55.5694H12.2713V55.5954ZM1.0682 49.7993H2.05824C2.63142 49.7993 3.23065 49.9813 3.43908 50.5271C3.56935 50.865 3.5433 51.3588 3.33487 51.6707C3.07433 52.0346 2.65747 52.2685 2.26667 52.4505C1.82375 52.6584 1.4069 52.8923 1.01609 53.1782L1.0682 49.7993ZM2.63142 53.3342C3.2046 53.0483 3.85594 52.7623 4.24674 52.2165C4.58544 51.7487 4.68966 51.0989 4.55939 50.5271C4.45517 49.8773 3.98621 49.3575 3.41303 49.0456C2.91801 48.8117 2.34483 48.7597 1.7977 48.7597H0V55.5434H1.0682C1.0682 55.1535 1.04215 54.7637 1.19847 54.3998C1.459 53.88 2.08429 53.5941 2.63142 53.3342Z" fill="white"/>
<path d="M51.7165 67.2914C51.7165 70.3844 49.2153 72.8795 46.115 72.8795C43.223 72.8795 40.8 70.6703 40.5395 67.7852C40.8782 67.8112 41.1908 67.8892 41.5035 67.9932C41.8943 70.5403 44.2652 72.3077 46.8184 71.9179C49.3717 71.528 51.1433 69.1628 50.7525 66.6156C50.3617 64.0685 47.9908 62.3011 45.4376 62.6909C43.2491 63.0028 41.6077 64.8222 41.4514 67.0055C41.1387 66.9275 40.8261 66.8755 40.5134 66.8495C40.774 63.7826 43.4835 61.4953 46.5579 61.7552C49.4759 61.9892 51.7165 64.4064 51.7165 67.2914Z" fill="#F0282D"/>
<path d="M40.0704 67.7594C42.3631 67.7594 44.3432 69.4489 44.6819 71.7101C44.9946 71.8141 45.3072 71.892 45.6459 71.918C45.3854 69.033 42.9624 66.8237 40.0704 66.8237C39.9141 66.8237 39.7317 66.8237 39.5754 66.8497C39.5754 67.0057 39.6015 67.1356 39.6015 67.2916C39.6015 67.4475 39.6015 67.6295 39.5754 67.7854C39.7317 67.7854 39.9141 67.7594 40.0704 67.7594ZM44.708 72.6978C44.5517 75.2709 42.3371 77.2203 39.7578 77.0383C37.1785 76.8824 35.2244 74.6731 35.4068 72.1C35.5371 70.2026 36.7877 68.5651 38.6114 67.9673C38.6375 67.7334 38.6635 67.4995 38.6635 67.2656C38.6635 67.1616 38.6635 67.0836 38.6635 66.9797C35.6674 67.7594 33.8697 70.8004 34.6513 73.7894C35.4329 76.7784 38.4812 78.5718 41.4773 77.7921C43.7961 77.1943 45.4635 75.1929 45.6459 72.8277C45.3333 72.8277 45.0206 72.7757 44.708 72.6978Z" fill="#00A651"/>
<path d="M34 61.7292C31.082 61.7292 28.659 63.9645 28.4246 66.8755C28.7372 66.9015 29.0498 66.9535 29.3364 67.0315C29.4928 64.4583 31.7073 62.509 34.2866 62.6909C36.8659 62.8469 38.82 65.0561 38.6376 67.6293C38.5073 69.5267 37.2567 71.1641 35.433 71.7619C35.4069 71.9958 35.3809 72.2297 35.3809 72.4637C35.3809 72.5676 35.3809 72.6456 35.3809 72.7496C38.3771 71.9698 40.1748 68.9288 39.3931 65.9398C38.7679 63.4447 36.5533 61.7292 34 61.7292ZM34 71.9438C31.6813 71.9438 29.7272 70.2544 29.3885 67.9932C29.0759 67.8892 28.7633 67.8112 28.4246 67.7852C28.6851 70.6703 31.1081 72.8795 34 72.8795C34.1564 72.8795 34.3127 72.8795 34.4951 72.8535C34.4951 72.6976 34.469 72.5676 34.469 72.4117C34.469 72.2557 34.469 72.0738 34.4951 71.9179C34.3387 71.9438 34.1564 71.9438 34 71.9438Z" fill="black"/>
<path d="M27.4605 67.7854C27.4865 67.6295 27.4865 67.4475 27.4865 67.2916C27.4865 67.1356 27.4865 67.0057 27.4605 66.8497C27.6168 66.8237 27.7731 66.8237 27.9555 66.8237C30.8475 66.8237 33.2704 69.033 33.531 71.918C33.1923 71.892 32.8796 71.8141 32.567 71.7101C32.2283 69.4489 30.2743 67.7594 27.9555 67.7594C27.7731 67.7594 27.6168 67.7854 27.4605 67.7854ZM33.531 72.8537C33.2965 75.9207 30.5869 78.2079 27.5126 77.974C24.4383 77.7401 22.1455 75.037 22.38 71.97C22.5624 69.6048 24.2559 67.6035 26.5486 67.0057C26.5486 67.1096 26.5486 67.1876 26.5486 67.2916C26.5486 67.5255 26.5225 67.7594 26.4965 67.9933C24.0475 68.7991 22.7187 71.4242 23.5264 73.8674C24.334 76.3106 26.9655 77.6361 29.4145 76.8304C31.2383 76.2326 32.4888 74.5951 32.6191 72.6978C32.9057 72.7757 33.2183 72.8277 33.531 72.8537Z" fill="#FFB114"/>
<path d="M27.4865 67.2915C27.4865 64.1985 24.9854 61.7034 21.885 61.7034C18.7846 61.7034 16.2834 64.1985 16.2834 67.2915C16.2834 70.3845 18.7846 72.8796 21.885 72.8796C22.0413 72.8796 22.1976 72.8796 22.38 72.8537C22.38 72.6977 22.3539 72.5678 22.3539 72.4118C22.3539 72.2559 22.3539 72.0739 22.38 71.918C22.2237 71.944 22.0674 71.944 21.885 71.944C19.3057 71.944 17.2214 69.8387 17.2474 67.2655C17.2474 64.6924 19.3578 62.6131 21.9371 62.6391C24.5164 62.6391 26.6007 64.7444 26.5746 67.3175C26.5746 69.3188 25.272 71.1122 23.37 71.71C23.344 71.944 23.3179 72.1779 23.3179 72.4118C23.3179 72.5158 23.3179 72.5937 23.3179 72.6977C25.767 72.0739 27.4865 69.8387 27.4865 67.2915Z" fill="#0078D0"/>
</g>
<defs>
<clipPath id="clip0_13_587">
<rect width="68" height="78" fill="white"/>
</clipPath>
</defs>
</svg>
