<svg width="194" height="33" viewBox="0 0 194 33" fill="none" xmlns="http://www.w3.org/2000/svg">
<path d="M159.731 22.4847C160.12 21.9398 160.353 21.3171 160.509 20.6943C160.665 20.0716 160.743 19.371 160.743 18.7483V18.6704H162.689V16.4909H158.485V17.3471C158.485 17.7363 158.485 18.1256 158.407 18.5148C158.407 18.904 158.329 19.2932 158.252 19.6824C158.174 20.0716 158.096 20.383 157.94 20.6943L157.862 20.85L154.749 17.425L154.827 17.3471C155.294 17.1136 155.683 16.8023 156.072 16.4909C156.461 16.1795 156.773 15.8682 157.084 15.4789C157.395 15.0897 157.551 14.7005 157.707 14.3113C157.862 13.8443 157.94 13.3772 157.94 12.8323C157.94 12.2096 157.785 11.5869 157.551 11.042C157.318 10.4971 156.928 10.1079 156.539 9.71869C156.15 9.32948 155.605 9.09595 155.06 8.94027C154.515 8.78459 153.893 8.62891 153.27 8.62891C152.647 8.62891 152.024 8.70675 151.479 8.94027C150.935 9.09595 150.468 9.40732 150 9.79653C149.611 10.1857 149.3 10.5749 148.989 11.1198C148.755 11.6647 148.599 12.2096 148.599 12.9102C148.599 13.2994 148.677 13.6886 148.755 14C148.833 14.3113 148.989 14.6227 149.144 14.8562C149.3 15.1676 149.456 15.4011 149.689 15.7125C149.923 16.0238 150.156 16.2574 150.467 16.5687L150.545 16.6466L150.467 16.7244C149.533 17.2693 148.833 17.9699 148.288 18.6704C147.743 19.371 147.51 20.3051 147.51 21.317C147.51 22.0955 147.665 22.796 147.977 23.4188C148.288 24.0415 148.677 24.5864 149.144 24.9756C149.611 25.4426 150.234 25.754 150.935 25.9875C151.635 26.2211 152.336 26.3767 153.036 26.3767C153.893 26.3767 154.749 26.2211 155.605 25.9097C156.383 25.5983 157.162 25.2091 157.862 24.5864L157.94 24.5085L159.186 25.9097H162.611L159.731 22.4847ZM152.102 11.3534C152.491 11.042 152.958 10.8863 153.503 10.8863C154.048 10.8863 154.515 11.042 154.904 11.4312C155.294 11.7426 155.449 12.2875 155.449 12.9102C155.449 13.2994 155.372 13.6108 155.216 13.8443C155.06 14.0778 154.904 14.3113 154.671 14.5449C154.437 14.7784 154.204 14.9341 153.97 15.0897C153.737 15.2454 153.425 15.4011 153.192 15.5568H153.114L152.491 14.9341C152.258 14.7005 152.102 14.5449 151.946 14.3113C151.791 14.0778 151.635 13.8443 151.557 13.6108C151.479 13.3772 151.402 13.0659 151.402 12.8323C151.479 12.1318 151.713 11.6647 152.102 11.3534ZM156.383 22.796C155.994 23.2631 155.527 23.4966 154.982 23.6523C154.437 23.808 153.97 23.8858 153.425 23.8858C153.036 23.8858 152.647 23.808 152.258 23.7301C151.869 23.6523 151.557 23.4188 151.246 23.1852C150.935 22.9517 150.701 22.6404 150.545 22.329C150.39 22.0176 150.312 21.5506 150.312 21.1614C150.312 20.7722 150.39 20.4608 150.467 20.2273C150.545 19.9159 150.701 19.6824 150.935 19.5267C151.09 19.2932 151.324 19.1375 151.557 18.9818C151.791 18.8261 152.102 18.6704 152.336 18.4369L152.414 18.3591L156.383 22.796Z" fill="#E5E5E5"/>
<path d="M193.592 17.1135C193.358 16.413 192.969 15.7124 192.502 15.1675C192.113 14.6226 191.49 14.1556 190.712 13.8442C189.933 13.455 189.077 13.2993 188.143 13.2993C187.209 13.2993 186.352 13.455 185.574 13.8442C184.796 14.2334 184.251 14.7005 183.784 15.1675C183.317 15.7902 182.927 16.413 182.694 17.1135C182.46 17.8141 182.305 18.7482 182.305 19.7601C182.305 20.8499 182.46 21.7062 182.694 22.4068C182.927 23.1073 183.317 23.8079 183.784 24.3528C184.173 24.8977 184.796 25.3647 185.574 25.6761C186.352 26.0653 187.209 26.221 188.143 26.221C189.077 26.221 189.933 26.0653 190.712 25.6761C191.49 25.2869 192.035 24.8198 192.502 24.3528C192.969 23.7301 193.358 23.1073 193.592 22.4068C193.825 21.7062 193.981 20.7721 193.981 19.7601C193.981 18.7482 193.825 17.8141 193.592 17.1135ZM190.945 21.5505C190.867 22.0954 190.556 22.6403 190.167 23.0295C189.933 23.263 189.7 23.4965 189.31 23.6522C188.999 23.8079 188.61 23.8857 188.143 23.8857C187.676 23.8857 187.287 23.8079 186.975 23.6522C186.664 23.4965 186.352 23.263 186.119 23.0295C185.73 22.6403 185.496 22.0954 185.34 21.5505C185.263 21.0056 185.185 20.3829 185.185 19.7601C185.185 19.1374 185.263 18.5925 185.34 17.9698C185.418 17.4249 185.73 16.88 186.119 16.4908C186.352 16.2573 186.586 16.0238 186.975 15.8681C187.287 15.7124 187.676 15.6346 188.143 15.6346C188.61 15.6346 188.999 15.7124 189.31 15.8681C189.622 16.0238 189.933 16.2573 190.167 16.4908C190.556 16.88 190.789 17.4249 190.945 17.9698C191.023 18.5147 191.101 19.1374 191.101 19.7601C191.101 20.3829 191.023 20.9278 190.945 21.5505Z" fill="#E5E5E5"/>
<path d="M170.629 14.856C170.706 14.389 170.862 13.9998 171.018 13.5327C171.173 13.1435 171.407 12.7543 171.718 12.4429C172.03 12.0537 172.497 11.7424 172.964 11.5867C173.431 11.3531 173.976 11.2753 174.443 11.2753C174.988 11.2753 175.533 11.3531 176 11.5867C176.467 11.7424 176.856 12.0537 177.167 12.4429C177.401 12.7543 177.556 12.9878 177.712 13.2992C177.868 13.5327 177.946 13.8441 177.946 14.2333H180.981C180.904 13.6105 180.748 12.9878 180.514 12.3651C180.281 11.7424 179.892 11.1196 179.425 10.6526C178.802 10.0298 178.023 9.48496 177.167 9.17359C176.311 8.86223 175.455 8.70654 174.521 8.70654C173.587 8.70654 172.73 8.86223 171.874 9.17359C171.018 9.48496 170.317 9.95201 169.617 10.6526C169.15 11.1196 168.76 11.5867 168.527 12.1316C168.215 12.6765 168.06 13.2213 167.904 13.7662C167.748 14.3111 167.671 14.9339 167.593 15.6344C167.515 16.2572 167.515 16.9577 167.515 17.6583C167.515 18.3589 167.515 19.0594 167.593 19.6822C167.671 20.3049 167.748 20.9276 167.904 21.4725C168.06 22.0174 168.293 22.5623 168.527 23.1072C168.838 23.6521 169.15 24.1191 169.617 24.5862C170.239 25.2089 171.018 25.7538 171.874 26.0652C172.73 26.3765 173.587 26.5322 174.521 26.5322C175.455 26.5322 176.311 26.3765 177.167 25.9873C178.023 25.676 178.802 25.1311 179.425 24.5083C179.892 23.9635 180.281 23.4186 180.514 22.7958C180.748 22.1731 180.904 21.5504 180.981 20.9276H177.946C177.868 21.6282 177.634 22.2509 177.167 22.7958C176.856 23.185 176.467 23.4186 176 23.6521C175.533 23.8078 174.988 23.9635 174.443 23.9635C173.898 23.9635 173.431 23.8856 172.964 23.6521C172.497 23.4186 172.108 23.185 171.718 22.7958C171.407 22.4845 171.173 22.0953 171.018 21.7061C170.862 21.3168 170.706 20.8498 170.629 20.3828C170.551 19.9157 170.473 19.4487 170.473 18.9816C170.473 18.5146 170.473 18.1253 170.473 17.7361C170.473 17.3469 170.473 16.8799 170.473 16.4907C170.473 15.7901 170.551 15.3231 170.629 14.856Z" fill="#E5E5E5"/>
<path d="M120.031 11.9762H122.912V8.86255L120.031 10.5751V11.9762Z" fill="#E5E5E5"/>
<path d="M43.4356 17.1134C43.9805 16.2572 44.2919 15.2452 44.2919 14.0776C44.2919 13.377 44.1362 12.6765 43.9026 12.0537C43.6691 11.431 43.2799 10.8861 42.8129 10.3412C42.3458 9.87416 41.7231 9.48496 40.9447 9.17359C40.1663 8.86223 39.31 8.70654 38.2981 8.70654H31.9929V26.0652H35.0287V19.4487H38.0645L40.9447 26.0652H44.214L41.0225 18.9038H41.1004C42.1123 18.5924 42.8907 17.9697 43.4356 17.1134ZM40.5555 16.1015C40.0106 16.5685 39.31 16.802 38.3759 16.802H35.0287V11.3532H38.2981C38.7651 11.3532 39.1543 11.431 39.5435 11.5867C39.9327 11.7424 40.2441 11.898 40.4776 12.2094C40.7112 12.4429 40.9447 12.7543 41.1004 13.0657C41.256 13.377 41.3339 13.7662 41.3339 14.0776C41.3339 15.0117 41.1004 15.6344 40.5555 16.1015Z" fill="#E5E5E5"/>
<path d="M55.8126 15.1675C55.3456 14.6226 54.8007 14.1555 54.0223 13.7663C53.2439 13.3771 52.3876 13.2214 51.3757 13.2214C50.4416 13.2214 49.5075 13.455 48.7291 13.7663C47.9506 14.1555 47.3279 14.6226 46.9387 15.1675C46.4717 15.7902 46.0824 16.4129 45.8489 17.1135C45.6154 17.8141 45.4597 18.7482 45.4597 19.838C45.4597 20.9277 45.6154 21.784 45.8489 22.5624C46.0824 23.263 46.4717 23.9635 46.9387 24.5863C47.4058 25.1312 47.9506 25.5982 48.7291 25.9874C49.5075 26.3766 50.3637 26.5323 51.3757 26.5323C52.3098 26.5323 53.2439 26.2988 54.0223 25.9874C54.8007 25.5982 55.4234 25.1312 55.8126 24.5863C56.2797 23.9635 56.6689 23.3408 56.9024 22.5624C57.1359 21.8618 57.2916 20.9277 57.2916 19.838C57.2916 18.7482 57.1359 17.8919 56.9024 17.1135C56.6689 16.4129 56.2797 15.7902 55.8126 15.1675ZM54.178 21.6283C54.0223 22.251 53.7887 22.7181 53.3995 23.1851C53.166 23.4187 52.8546 23.6522 52.5433 23.8079C52.2319 23.9635 51.8427 24.0414 51.3757 24.0414C50.9086 24.0414 50.5194 23.9635 50.208 23.8079C49.8967 23.6522 49.5853 23.4187 49.3518 23.1851C48.9626 22.7959 48.7291 22.251 48.5734 21.6283C48.4955 21.0834 48.4177 20.4607 48.4177 19.838C48.4177 19.2152 48.4955 18.5925 48.5734 18.0476C48.7291 17.5027 48.9626 16.9578 49.3518 16.4908C49.5853 16.2572 49.8967 16.0237 50.208 15.868C50.5194 15.7124 50.9086 15.6345 51.3757 15.6345C51.8427 15.6345 52.2319 15.7124 52.5433 15.868C52.8546 16.0237 53.166 16.2572 53.3995 16.4908C53.7887 16.88 54.0223 17.4249 54.178 18.0476C54.2558 18.5925 54.3336 19.2152 54.3336 19.838C54.3336 20.4607 54.3336 21.0834 54.178 21.6283Z" fill="#E5E5E5"/>
<path d="M65.0757 23.73C64.5308 23.73 64.1416 23.5743 63.908 23.3408C63.6745 23.1072 63.5188 22.718 63.5188 22.1731V15.7901H66.7882V13.4549H63.5188V8.78442L60.6387 10.4969V13.4549H58.3035V15.7901H60.6387V22.4067C60.6387 23.5743 60.9501 24.5862 61.5728 25.209C62.1955 25.9095 63.1296 26.2209 64.4529 26.2209C65.3092 26.2209 66.1654 26.143 67.0217 25.9095V23.4964C66.6325 23.5743 66.3211 23.5743 66.0876 23.5743C65.7762 23.73 65.4649 23.73 65.0757 23.73Z" fill="#E5E5E5"/>
<path d="M78.6975 14.4668C78.3083 14.0776 77.9191 13.7663 77.3742 13.5327C76.8293 13.2992 76.2845 13.2214 75.5839 13.2214C74.9612 13.2214 74.2606 13.3771 73.6378 13.6106C73.0151 13.922 72.5481 14.3112 72.1589 14.8561L72.0032 15.0896V8.78442H69.123V26.143H72.0032V19.4487C72.0032 19.0595 72.081 18.5924 72.1589 18.2032C72.2367 17.7362 72.3924 17.347 72.6259 17.0356C72.8594 16.6464 73.1708 16.4129 73.4822 16.1794C73.8714 15.9458 74.2606 15.868 74.7276 15.868C75.5839 15.868 76.2066 16.1015 76.518 16.5686C76.8293 17.0356 76.985 17.6583 76.985 18.3589V26.2209H79.8652V17.6583C79.8652 17.0356 79.7873 16.4129 79.5538 15.868C79.3203 15.3231 79.0089 14.8561 78.6975 14.4668Z" fill="#E5E5E5"/>
<path d="M88.9726 18.7482C88.6613 18.6703 88.4278 18.6703 88.1942 18.5925C87.9607 18.5925 87.805 18.5146 87.5715 18.5146L86.9488 18.4368C86.7152 18.4368 86.4817 18.359 86.1704 18.359C85.7811 18.2811 85.4698 18.2033 85.1584 18.0476C84.7692 17.8919 84.6135 17.5027 84.6135 17.0357C84.6135 16.6465 84.6914 16.4129 84.9249 16.1016C85.1584 15.868 85.3919 15.7124 85.7033 15.5567C85.9368 15.4788 86.1704 15.401 86.4039 15.401C86.6374 15.401 86.8709 15.401 87.1045 15.401C87.4158 15.401 87.805 15.4788 88.1164 15.5567C88.4278 15.6345 88.6613 15.7902 88.8948 16.0237C89.0505 16.1794 89.2062 16.4129 89.284 16.5686C89.3619 16.7243 89.4397 16.9578 89.4397 17.1913H92.1641C92.1641 16.8021 92.0863 16.3351 91.8528 15.9459C91.6193 15.4788 91.3857 15.0896 91.0744 14.7004C90.6073 14.2334 89.9846 13.8442 89.3618 13.6106C88.6613 13.3771 87.8829 13.2214 87.1823 13.2214C86.4039 13.2214 85.6255 13.2993 85.0027 13.5328C84.38 13.7663 83.8351 14.0777 83.3681 14.4669C82.9789 14.7783 82.6675 15.1675 82.434 15.6345C82.2004 16.1016 82.0448 16.6465 82.0448 17.2692C82.0448 17.6584 82.1226 18.0476 82.2783 18.4368C82.434 18.826 82.5897 19.1374 82.901 19.4487C83.1345 19.7601 83.4459 19.9936 83.8351 20.2272C84.1465 20.4607 84.5357 20.6164 85.0027 20.6942C85.5476 20.8499 86.1704 20.9277 86.7931 21.0056C87.4158 21.0834 88.0385 21.1613 88.5834 21.2391C88.9726 21.3169 89.3619 21.4726 89.5954 21.7061C89.8289 21.9397 89.9846 22.251 89.9846 22.7181C89.9846 23.1073 89.9067 23.4187 89.6732 23.6522C89.5175 23.8857 89.284 24.0414 88.9726 24.1971C88.7391 24.3528 88.4278 24.4306 88.1164 24.4306C87.2601 24.5084 86.5596 24.5084 86.0925 24.3528C85.7811 24.2749 85.4698 24.1192 85.2363 23.8857C85.0027 23.73 84.847 23.4965 84.6914 23.1851C84.5357 22.9516 84.5357 22.6402 84.4578 22.4067H81.7334C81.7334 22.9516 81.8891 23.4965 82.1226 23.9635C82.3561 24.4306 82.6675 24.8976 83.0567 25.209C83.6016 25.6761 84.1465 26.0653 84.8471 26.2988C85.5476 26.5323 86.326 26.688 87.1045 26.688C87.9607 26.688 88.817 26.6102 89.5175 26.3766C90.2181 26.1431 90.9187 25.7539 91.3857 25.2868C91.6971 24.9755 91.9306 24.5863 92.1641 24.1192C92.3977 23.6522 92.4755 23.1073 92.4755 22.5624C92.4755 21.5505 92.1641 20.772 91.5414 20.1493C90.8408 19.2931 89.9846 18.9039 88.9726 18.7482Z" fill="#E5E5E5"/>
<path d="M97.6131 16.4907C97.8466 16.2572 98.0801 16.0237 98.3915 15.868C98.7028 15.7123 99.092 15.6345 99.5591 15.6345C100.026 15.6345 100.493 15.7123 100.805 15.9458C101.116 16.1015 101.427 16.4129 101.583 16.6464C101.661 16.8021 101.739 17.0356 101.816 17.1913C101.894 17.347 101.894 17.5805 101.972 17.7362H104.852C104.852 17.2691 104.697 16.8021 104.541 16.3351C104.385 15.868 104.152 15.401 103.84 15.0896C103.373 14.5447 102.828 14.0777 102.05 13.6884C101.349 13.2992 100.493 13.1436 99.4812 13.1436C98.5471 13.1436 97.6131 13.3771 96.9125 13.7663C96.1341 14.1555 95.5113 14.6225 95.1221 15.1674C94.6551 15.7902 94.2659 16.4907 94.1102 17.2691C93.8767 18.0476 93.7988 18.9038 93.7988 19.8379C93.7988 20.772 93.8767 21.6283 94.1102 22.4067C94.3437 23.1851 94.6551 23.8857 95.1221 24.5084C95.5892 25.0533 96.1341 25.5203 96.9125 25.9095C97.6909 26.2987 98.5471 26.5323 99.4812 26.5323C100.415 26.5323 101.272 26.2987 102.05 25.9874C102.751 25.5982 103.373 25.1311 103.84 24.5862C104.152 24.197 104.385 23.8078 104.541 23.3408C104.697 22.8737 104.774 22.4067 104.852 21.9396H101.972C101.972 22.1732 101.894 22.3288 101.816 22.4845C101.739 22.718 101.661 22.8737 101.583 23.0294C101.427 23.3408 101.116 23.5743 100.805 23.73C100.493 23.8857 100.026 24.0413 99.5591 24.0413C99.092 24.0413 98.7028 23.9635 98.3915 23.8078C98.0801 23.6521 97.7687 23.4186 97.6131 23.1851C97.2238 22.7959 96.9903 22.251 96.8346 21.6283C96.7568 21.0834 96.679 20.4606 96.679 19.8379C96.679 19.2152 96.7568 18.5925 96.8346 18.0476C96.9903 17.4248 97.2238 16.8799 97.6131 16.4907Z" fill="#E5E5E5"/>
<path d="M116.295 14.4668C115.906 14.0776 115.517 13.7663 114.972 13.5327C114.427 13.2992 113.882 13.2214 113.182 13.2214C112.559 13.2214 111.858 13.3771 111.236 13.6106C110.613 13.922 110.146 14.3112 109.757 14.8561L109.601 15.0896V8.78442H106.721V26.143H109.601V19.4487C109.601 19.0595 109.679 18.5924 109.757 18.2032C109.834 17.7362 109.99 17.347 110.224 17.0356C110.457 16.6464 110.768 16.4129 111.08 16.1794C111.469 15.9458 111.858 15.868 112.325 15.868C113.182 15.868 113.804 16.1015 114.116 16.5686C114.427 17.0356 114.583 17.6583 114.583 18.3589V26.2209H117.463V17.6583C117.463 17.0356 117.385 16.4129 117.151 15.868C116.996 15.3231 116.684 14.8561 116.295 14.4668Z" fill="#E5E5E5"/>
<path d="M122.756 13.3772H120.031V26.1432H122.756V13.3772Z" fill="#E5E5E5"/>
<path d="M129.762 23.8078C129.217 23.8078 128.827 23.6521 128.672 23.4186C128.516 23.1851 128.438 22.8737 128.438 22.4845V8.78442H125.558V22.9516C125.558 24.1192 125.869 24.9754 126.492 25.5203C127.115 26.0652 127.971 26.2987 128.983 26.2987C129.294 26.2987 129.528 26.2987 129.684 26.2987C129.839 26.2987 129.995 26.2209 130.306 26.143V23.73C130.229 23.73 130.229 23.73 130.229 23.73C129.995 23.73 129.917 23.8078 129.762 23.8078Z" fill="#E5E5E5"/>
<path d="M140.27 14.5447L140.115 14.3112C139.881 13.9998 139.414 13.6884 138.869 13.4549C138.324 13.2214 137.624 13.0657 136.845 13.0657C136.222 13.0657 135.6 13.1435 135.133 13.2992C134.666 13.4549 134.199 13.7663 133.809 14.0776C132.33 15.3231 131.552 17.1913 131.552 19.7601C131.552 20.9277 131.708 22.0175 132.097 22.9516C132.486 23.8856 133.031 24.6641 133.809 25.2868C134.199 25.5982 134.666 25.8317 135.133 26.0652C135.678 26.2209 136.222 26.3766 136.845 26.3766C137.546 26.3766 138.246 26.2209 138.869 25.9874C139.492 25.7538 140.037 25.2868 140.348 24.7419L140.504 24.5084L140.737 26.0652H143.228V8.78442H140.348V14.5447H140.27ZM140.426 19.8379C140.426 20.3049 140.426 20.772 140.348 21.3169C140.27 21.7839 140.115 22.251 139.881 22.718C139.648 23.1072 139.336 23.4964 138.947 23.73C138.558 23.9635 138.013 24.1192 137.39 24.1192C136.923 24.1192 136.456 24.0413 136.145 23.8078C135.833 23.5743 135.522 23.3408 135.288 23.0294C134.977 22.5623 134.744 22.0953 134.588 21.5504C134.51 21.0055 134.432 20.4606 134.432 19.8379C134.432 19.293 134.51 18.7481 134.588 18.1254C134.666 17.5805 134.899 17.0356 135.288 16.6464C135.522 16.335 135.833 16.1015 136.145 15.868C136.534 15.6345 136.923 15.5566 137.39 15.5566C138.013 15.5566 138.558 15.7123 138.947 15.9458C139.336 16.1794 139.648 16.5686 139.881 16.9578C140.115 17.347 140.27 17.814 140.348 18.3589C140.348 18.9038 140.426 19.3708 140.426 19.8379Z" fill="#E5E5E5"/>
<path d="M23.4303 23.7301L17.5143 19.0596L14.4785 16.7243L21.7956 11.0419L22.9632 11.4311L27.1666 8.23962L25.0649 7.77257L25.2206 5.67085L21.0172 8.86235L21.095 10.1078L15.1791 14.7005L18.4484 8.00609L19.6939 7.85041L22.0291 3.10209L19.9274 3.64698L19.149 1.70094L16.8137 6.44927L17.4365 7.4612L14.1671 14.3112V12.4431V9.40724V6.68279L15.1791 6.06006V0.766846L13.5444 2.16799L11.9876 0.766846V6.06006L12.9995 6.68279V9.40724V12.4431V14.3112L9.73017 7.4612L10.3529 6.44927L8.01766 1.70094L7.23925 3.64698L5.13753 3.10209L7.47277 7.85041L8.71823 8.00609L11.9876 14.7783L6.07163 10.1078L6.14947 8.86235L2.02388 5.67085L2.10172 7.77257L0 8.23962L4.20343 11.4311L5.37105 11.0419L12.6103 16.7243L9.65233 19.0596L3.73639 23.7301L3.42502 22.4067L1.01194 26.6102L5.68242 25.2869L4.43696 24.6641L11.9876 18.7482L11.287 20.1493L7.78414 27.3886L6.92788 26.2988L6.69436 31.125L10.2751 27.8556H8.87392L12.9995 19.2153V28.7897L11.8319 28.167L13.5444 32.6818L15.3348 28.167L14.1671 28.7897V19.2153L18.2927 27.8556H16.8916L20.5501 31.125L20.2388 26.2988L19.3825 27.3886L15.8796 20.1493L15.1791 18.7482L22.7297 24.6641L21.4842 25.2869L26.1547 26.6102L23.7416 22.4067L23.4303 23.7301Z" fill="#E5E5E5"/>
</svg>
